<mxfile host="65bd71144e">
    <diagram id="J_iQI-pZki61xCbsZYVH" name="Page-1">
        <mxGraphModel dx="1905" dy="924" grid="1" gridSize="10" guides="1" tooltips="1" connect="1" arrows="1" fold="1" page="1" pageScale="1" pageWidth="850" pageHeight="1100" math="0" shadow="0">
            <root>
                <mxCell id="0"/>
                <mxCell id="1" parent="0"/>
                <mxCell id="2" value="Student" style="swimlane;fontStyle=0;childLayout=stackLayout;horizontal=1;startSize=30;horizontalStack=0;resizeParent=1;resizeParentMax=0;resizeLast=0;collapsible=1;marginBottom=0;" parent="1" vertex="1">
                    <mxGeometry x="-820" y="1490" width="360" height="692" as="geometry"/>
                </mxCell>
                <mxCell id="3" value="-__log: Logger()" style="text;strokeColor=none;fillColor=#666600;align=left;verticalAlign=middle;spacingLeft=4;spacingRight=4;overflow=hidden;points=[[0,0.5],[1,0.5]];portConstraint=eastwest;rotatable=0;" parent="2" vertex="1">
                    <mxGeometry y="30" width="360" height="30" as="geometry"/>
                </mxCell>
                <mxCell id="4" value="-__advisor: Advisor()" style="text;strokeColor=none;fillColor=none;align=left;verticalAlign=middle;spacingLeft=4;spacingRight=4;overflow=hidden;points=[[0,0.5],[1,0.5]];portConstraint=eastwest;rotatable=0;" parent="2" vertex="1">
                    <mxGeometry y="60" width="360" height="30" as="geometry"/>
                </mxCell>
                <mxCell id="5" value="-__id: StudentID()" style="text;strokeColor=none;fillColor=none;align=left;verticalAlign=middle;spacingLeft=4;spacingRight=4;overflow=hidden;points=[[0,0.5],[1,0.5]];portConstraint=eastwest;rotatable=0;" parent="2" vertex="1">
                    <mxGeometry y="90" width="360" height="30" as="geometry"/>
                </mxCell>
                <mxCell id="6" value="-__schedule: Schedule()" style="text;strokeColor=none;fillColor=none;align=left;verticalAlign=middle;spacingLeft=4;spacingRight=4;overflow=hidden;points=[[0,0.5],[1,0.5]];portConstraint=eastwest;rotatable=0;" parent="2" vertex="1">
                    <mxGeometry y="120" width="360" height="30" as="geometry"/>
                </mxCell>
                <mxCell id="7" value="-__transcript: Transcript()" style="text;strokeColor=none;fillColor=none;align=left;verticalAlign=middle;spacingLeft=4;spacingRight=4;overflow=hidden;points=[[0,0.5],[1,0.5]];portConstraint=eastwest;rotatable=0;" parent="2" vertex="1">
                    <mxGeometry y="150" width="360" height="30" as="geometry"/>
                </mxCell>
                <mxCell id="8" value="-__dateOfEntry: Calendar()" style="text;strokeColor=none;fillColor=none;align=left;verticalAlign=middle;spacingLeft=4;spacingRight=4;overflow=hidden;points=[[0,0.5],[1,0.5]];portConstraint=eastwest;rotatable=0;" parent="2" vertex="1">
                    <mxGeometry y="180" width="360" height="30" as="geometry"/>
                </mxCell>
                <mxCell id="9" value="-__debt: Debt()" style="text;strokeColor=none;fillColor=none;align=left;verticalAlign=middle;spacingLeft=4;spacingRight=4;overflow=hidden;points=[[0,0.5],[1,0.5]];portConstraint=eastwest;rotatable=0;" parent="2" vertex="1">
                    <mxGeometry y="210" width="360" height="30" as="geometry"/>
                </mxCell>
                <mxCell id="10" value="-__registrationApplication: LectureRegistrationApplication()" style="text;strokeColor=none;fillColor=none;align=left;verticalAlign=middle;spacingLeft=4;spacingRight=4;overflow=hidden;points=[[0,0.5],[1,0.5]];portConstraint=eastwest;rotatable=0;" parent="2" vertex="1">
                    <mxGeometry y="240" width="360" height="30" as="geometry"/>
                </mxCell>
                <mxCell id="11" value="-__scanner: input()" style="text;strokeColor=none;fillColor=none;align=left;verticalAlign=middle;spacingLeft=4;spacingRight=4;overflow=hidden;points=[[0,0.5],[1,0.5]];portConstraint=eastwest;rotatable=0;" parent="2" vertex="1">
                    <mxGeometry y="270" width="360" height="30" as="geometry"/>
                </mxCell>
                <mxCell id="12" value="+&lt;&lt;&lt;constructor&gt;&gt;&gt;_init_(self)" style="text;strokeColor=none;fillColor=none;align=left;verticalAlign=middle;spacingLeft=4;spacingRight=4;overflow=hidden;points=[[0,0.5],[1,0.5]];portConstraint=eastwest;rotatable=0;" parent="2" vertex="1">
                    <mxGeometry y="300" width="360" height="30" as="geometry"/>
                </mxCell>
                <mxCell id="13" value="" style="endArrow=none;html=1;exitX=-0.008;exitY=0;exitDx=0;exitDy=0;exitPerimeter=0;entryX=0.996;entryY=0;entryDx=0;entryDy=0;entryPerimeter=0;" parent="2" source="12" target="12" edge="1">
                    <mxGeometry width="50" height="50" relative="1" as="geometry">
                        <mxPoint x="210" y="310" as="sourcePoint"/>
                        <mxPoint x="260" y="260" as="targetPoint"/>
                    </mxGeometry>
                </mxCell>
                <mxCell id="14" value="+sendForApproval(self, chosenLectureSessions): void" style="text;strokeColor=none;fillColor=none;align=left;verticalAlign=middle;spacingLeft=4;spacingRight=4;overflow=hidden;points=[[0,0.5],[1,0.5]];portConstraint=eastwest;rotatable=0;" parent="2" vertex="1">
                    <mxGeometry y="330" width="360" height="30" as="geometry"/>
                </mxCell>
                <mxCell id="22" value="+canTakeLecture(self, lecture, transcript): boolean" style="text;strokeColor=none;fillColor=none;align=left;verticalAlign=middle;spacingLeft=4;spacingRight=4;overflow=hidden;points=[[0,0.5],[1,0.5]];portConstraint=eastwest;rotatable=0;" parent="2" vertex="1">
                    <mxGeometry y="360" width="360" height="30" as="geometry"/>
                </mxCell>
                <mxCell id="23" value="-__hasPreqLectureTaken(self, preqLecture, listOfLecture): boolean" style="text;strokeColor=none;fillColor=none;align=left;verticalAlign=middle;spacingLeft=4;spacingRight=4;overflow=hidden;points=[[0,0.5],[1,0.5]];portConstraint=eastwest;rotatable=0;" parent="2" vertex="1">
                    <mxGeometry y="390" width="360" height="30" as="geometry"/>
                </mxCell>
                <mxCell id="24" value="-__takenPoint(self, lecture,listOfLecturesTaken): boolean" style="text;strokeColor=none;fillColor=none;align=left;verticalAlign=middle;spacingLeft=4;spacingRight=4;overflow=hidden;points=[[0,0.5],[1,0.5]];portConstraint=eastwest;rotatable=0;" parent="2" vertex="1">
                    <mxGeometry y="420" width="360" height="30" as="geometry"/>
                </mxCell>
                <mxCell id="25" value="+availableLessons(self): List" style="text;strokeColor=none;fillColor=#666600;align=left;verticalAlign=middle;spacingLeft=4;spacingRight=4;overflow=hidden;points=[[0,0.5],[1,0.5]];portConstraint=eastwest;rotatable=0;" parent="2" vertex="1">
                    <mxGeometry y="450" width="360" height="30" as="geometry"/>
                </mxCell>
                <mxCell id="231" value="+ checkScheduleForLecture(self, schedule, lecture): boolean" style="text;strokeColor=none;fillColor=#666600;align=left;verticalAlign=middle;spacingLeft=4;spacingRight=4;overflow=hidden;points=[[0,0.5],[1,0.5]];portConstraint=eastwest;rotatable=0;" parent="2" vertex="1">
                    <mxGeometry y="480" width="360" height="30" as="geometry"/>
                </mxCell>
                <mxCell id="297" value="- showChosenLectureSessions(ArrayList&lt;LectureSession&gt;): void" style="text;strokeColor=none;fillColor=#990000;align=left;verticalAlign=top;spacingLeft=4;spacingRight=4;overflow=hidden;rotatable=0;points=[[0,0.5],[1,0.5]];portConstraint=eastwest;" vertex="1" parent="2">
                    <mxGeometry y="510" width="360" height="26" as="geometry"/>
                </mxCell>
                <mxCell id="296" value="- parseSelectionCommand(String,ArrayList&lt;LectureSession&gt;): void" style="text;strokeColor=none;fillColor=#990000;align=left;verticalAlign=top;spacingLeft=4;spacingRight=4;overflow=hidden;rotatable=0;points=[[0,0.5],[1,0.5]];portConstraint=eastwest;" vertex="1" parent="2">
                    <mxGeometry y="536" width="360" height="26" as="geometry"/>
                </mxCell>
                <mxCell id="295" value="+ makeRegistrationMenu(): void" style="text;strokeColor=none;fillColor=#990000;align=left;verticalAlign=top;spacingLeft=4;spacingRight=4;overflow=hidden;rotatable=0;points=[[0,0.5],[1,0.5]];portConstraint=eastwest;" vertex="1" parent="2">
                    <mxGeometry y="562" width="360" height="26" as="geometry"/>
                </mxCell>
                <mxCell id="294" value="+ registrationStatusMenu(): void" style="text;strokeColor=none;fillColor=#990000;align=left;verticalAlign=top;spacingLeft=4;spacingRight=4;overflow=hidden;rotatable=0;points=[[0,0.5],[1,0.5]];portConstraint=eastwest;" vertex="1" parent="2">
                    <mxGeometry y="588" width="360" height="26" as="geometry"/>
                </mxCell>
                <mxCell id="293" value="+ debtMenu(): void" style="text;strokeColor=none;fillColor=#990000;align=left;verticalAlign=top;spacingLeft=4;spacingRight=4;overflow=hidden;rotatable=0;points=[[0,0.5],[1,0.5]];portConstraint=eastwest;" vertex="1" parent="2">
                    <mxGeometry y="614" width="360" height="26" as="geometry"/>
                </mxCell>
                <mxCell id="292" value="+ showSchedule(): void" style="text;strokeColor=none;fillColor=#990000;align=left;verticalAlign=top;spacingLeft=4;spacingRight=4;overflow=hidden;rotatable=0;points=[[0,0.5],[1,0.5]];portConstraint=eastwest;" vertex="1" parent="2">
                    <mxGeometry y="640" width="360" height="26" as="geometry"/>
                </mxCell>
                <mxCell id="291" value="+ showTranscript(): void" style="text;strokeColor=none;fillColor=#990000;align=left;verticalAlign=top;spacingLeft=4;spacingRight=4;overflow=hidden;rotatable=0;points=[[0,0.5],[1,0.5]];portConstraint=eastwest;" vertex="1" parent="2">
                    <mxGeometry y="666" width="360" height="26" as="geometry"/>
                </mxCell>
                <mxCell id="26" value="Person" style="swimlane;fontStyle=0;childLayout=stackLayout;horizontal=1;startSize=30;horizontalStack=0;resizeParent=1;resizeParentMax=0;resizeLast=0;collapsible=1;marginBottom=0;" parent="1" vertex="1">
                    <mxGeometry x="-560" y="1179" width="290" height="120" as="geometry"/>
                </mxCell>
                <mxCell id="27" value="# _firstName: String" style="text;strokeColor=none;fillColor=none;align=left;verticalAlign=middle;spacingLeft=4;spacingRight=4;overflow=hidden;points=[[0,0.5],[1,0.5]];portConstraint=eastwest;rotatable=0;" parent="26" vertex="1">
                    <mxGeometry y="30" width="290" height="30" as="geometry"/>
                </mxCell>
                <mxCell id="28" value="# _lastName: String" style="text;strokeColor=none;fillColor=none;align=left;verticalAlign=middle;spacingLeft=4;spacingRight=4;overflow=hidden;points=[[0,0.5],[1,0.5]];portConstraint=eastwest;rotatable=0;" parent="26" vertex="1">
                    <mxGeometry y="60" width="290" height="30" as="geometry"/>
                </mxCell>
                <mxCell id="29" value="" style="endArrow=none;html=1;" parent="26" edge="1">
                    <mxGeometry width="50" height="50" relative="1" as="geometry">
                        <mxPoint y="89" as="sourcePoint"/>
                        <mxPoint x="290" y="89" as="targetPoint"/>
                    </mxGeometry>
                </mxCell>
                <mxCell id="30" value="+&lt;&lt;&lt;constructor&gt;&gt;&gt;_init_(self)" style="text;strokeColor=none;fillColor=none;align=left;verticalAlign=middle;spacingLeft=4;spacingRight=4;overflow=hidden;points=[[0,0.5],[1,0.5]];portConstraint=eastwest;rotatable=0;" parent="26" vertex="1">
                    <mxGeometry y="90" width="290" height="30" as="geometry"/>
                </mxCell>
                <mxCell id="31" value="Advisor" style="swimlane;fontStyle=0;childLayout=stackLayout;horizontal=1;startSize=30;horizontalStack=0;resizeParent=1;resizeParentMax=0;resizeLast=0;collapsible=1;marginBottom=0;" parent="1" vertex="1">
                    <mxGeometry x="-440" y="1870" width="432.5" height="266" as="geometry"/>
                </mxCell>
                <mxCell id="32" value="-__listOfStudents: list()&#10;&#10;-__listOfApplications: list()" style="text;strokeColor=none;fillColor=none;align=left;verticalAlign=middle;spacingLeft=4;spacingRight=4;overflow=hidden;points=[[0,0.5],[1,0.5]];portConstraint=eastwest;rotatable=0;" parent="31" vertex="1">
                    <mxGeometry y="30" width="432.5" height="60" as="geometry"/>
                </mxCell>
                <mxCell id="306" value="- scanner: Scanner" style="text;strokeColor=none;fillColor=#990000;align=left;verticalAlign=top;spacingLeft=4;spacingRight=4;overflow=hidden;rotatable=0;points=[[0,0.5],[1,0.5]];portConstraint=eastwest;" vertex="1" parent="31">
                    <mxGeometry y="90" width="432.5" height="26" as="geometry"/>
                </mxCell>
                <mxCell id="33" value="+&lt;&lt;&lt;constructor&gt;&gt;&gt;_init_(self)" style="text;strokeColor=none;fillColor=none;align=left;verticalAlign=middle;spacingLeft=4;spacingRight=4;overflow=hidden;points=[[0,0.5],[1,0.5]];portConstraint=eastwest;rotatable=0;" parent="31" vertex="1">
                    <mxGeometry y="116" width="432.5" height="30" as="geometry"/>
                </mxCell>
                <mxCell id="36" value="-__approveApplication(self, lectureRegistrationApplication, lectureSesson): void" style="text;strokeColor=none;fillColor=none;align=left;verticalAlign=middle;spacingLeft=4;spacingRight=4;overflow=hidden;points=[[0,0.5],[1,0.5]];portConstraint=eastwest;rotatable=0;" parent="31" vertex="1">
                    <mxGeometry y="146" width="432.5" height="30" as="geometry"/>
                </mxCell>
                <mxCell id="37" value="" style="endArrow=none;html=1;entryX=1.001;entryY=0.002;entryDx=0;entryDy=0;entryPerimeter=0;" parent="31" target="33" edge="1">
                    <mxGeometry width="50" height="50" relative="1" as="geometry">
                        <mxPoint y="116" as="sourcePoint"/>
                        <mxPoint x="160" y="250" as="targetPoint"/>
                    </mxGeometry>
                </mxCell>
                <mxCell id="38" value="-__rejectApplication(self, lectureRegistrationApplication, lectureSesson): void" style="text;strokeColor=none;fillColor=none;align=left;verticalAlign=middle;spacingLeft=4;spacingRight=4;overflow=hidden;points=[[0,0.5],[1,0.5]];portConstraint=eastwest;rotatable=0;" parent="31" vertex="1">
                    <mxGeometry y="176" width="432.5" height="30" as="geometry"/>
                </mxCell>
                <mxCell id="308" value="+ applicationOperations(Integer): void" style="text;strokeColor=none;fillColor=#990000;align=left;verticalAlign=top;spacingLeft=4;spacingRight=4;overflow=hidden;rotatable=0;points=[[0,0.5],[1,0.5]];portConstraint=eastwest;" vertex="1" parent="31">
                    <mxGeometry y="206" width="432.5" height="30" as="geometry"/>
                </mxCell>
                <mxCell id="307" value="+ showApplications(): void" style="text;strokeColor=none;fillColor=#990000;align=left;verticalAlign=top;spacingLeft=4;spacingRight=4;overflow=hidden;rotatable=0;points=[[0,0.5],[1,0.5]];portConstraint=eastwest;" vertex="1" parent="31">
                    <mxGeometry y="236" width="432.5" height="30" as="geometry"/>
                </mxCell>
                <mxCell id="39" value="Instructor" style="swimlane;fontStyle=0;childLayout=stackLayout;horizontal=1;startSize=30;horizontalStack=0;resizeParent=1;resizeParentMax=0;resizeLast=0;collapsible=1;marginBottom=0;" parent="1" vertex="1">
                    <mxGeometry x="-405" y="1480" width="332.5" height="296" as="geometry"/>
                </mxCell>
                <mxCell id="40" value="-__id: InstructorID()&#10;&#10;-__schedule: Schedule()&#10;&#10;-__dateOfEntry: Calendar()" style="text;strokeColor=none;fillColor=none;align=left;verticalAlign=middle;spacingLeft=4;spacingRight=4;overflow=hidden;points=[[0,0.5],[1,0.5]];portConstraint=eastwest;rotatable=0;" parent="39" vertex="1">
                    <mxGeometry y="30" width="332.5" height="90" as="geometry"/>
                </mxCell>
                <mxCell id="143" value="-__instructorType: InstructorType()" style="text;strokeColor=none;fillColor=none;align=left;verticalAlign=middle;spacingLeft=4;spacingRight=4;overflow=hidden;points=[[0,0.5],[1,0.5]];portConstraint=eastwest;rotatable=0;" parent="39" vertex="1">
                    <mxGeometry y="120" width="332.5" height="30" as="geometry"/>
                </mxCell>
                <mxCell id="301" value="- scanner: Scanner" style="text;strokeColor=none;fillColor=#990000;align=left;verticalAlign=top;spacingLeft=4;spacingRight=4;overflow=hidden;rotatable=0;points=[[0,0.5],[1,0.5]];portConstraint=eastwest;" vertex="1" parent="39">
                    <mxGeometry y="150" width="332.5" height="26" as="geometry"/>
                </mxCell>
                <mxCell id="41" value="+&lt;&lt;&lt;constructor&gt;&gt;&gt;_init_(self)" style="text;strokeColor=none;fillColor=none;align=left;verticalAlign=middle;spacingLeft=4;spacingRight=4;overflow=hidden;points=[[0,0.5],[1,0.5]];portConstraint=eastwest;rotatable=0;" parent="39" vertex="1">
                    <mxGeometry y="176" width="332.5" height="30" as="geometry"/>
                </mxCell>
                <mxCell id="42" value="-__checkScheduleForLecture(self, schedule, lecture): boolean" style="text;strokeColor=none;fillColor=#666600;align=left;verticalAlign=middle;spacingLeft=4;spacingRight=4;overflow=hidden;points=[[0,0.5],[1,0.5]];portConstraint=eastwest;rotatable=0;" parent="39" vertex="1">
                    <mxGeometry y="206" width="332.5" height="30" as="geometry"/>
                </mxCell>
                <mxCell id="44" value="" style="endArrow=none;html=1;exitX=-0.005;exitY=0;exitDx=0;exitDy=0;exitPerimeter=0;entryX=1.001;entryY=0.002;entryDx=0;entryDy=0;entryPerimeter=0;" parent="39" source="41" target="41" edge="1">
                    <mxGeometry width="50" height="50" relative="1" as="geometry">
                        <mxPoint x="110" y="300" as="sourcePoint"/>
                        <mxPoint x="160" y="250" as="targetPoint"/>
                    </mxGeometry>
                </mxCell>
                <mxCell id="304" value="+ showStudents(): void" style="text;strokeColor=none;fillColor=#990000;align=left;verticalAlign=top;spacingLeft=4;spacingRight=4;overflow=hidden;rotatable=0;points=[[0,0.5],[1,0.5]];portConstraint=eastwest;" vertex="1" parent="39">
                    <mxGeometry y="236" width="332.5" height="30" as="geometry"/>
                </mxCell>
                <mxCell id="303" value="+ showLectures(): void" style="text;strokeColor=none;fillColor=#990000;align=left;verticalAlign=top;spacingLeft=4;spacingRight=4;overflow=hidden;rotatable=0;points=[[0,0.5],[1,0.5]];portConstraint=eastwest;" vertex="1" parent="39">
                    <mxGeometry y="266" width="332.5" height="30" as="geometry"/>
                </mxCell>
                <mxCell id="45" value="RegistrationSystem" style="swimlane;fontStyle=0;childLayout=stackLayout;horizontal=1;startSize=30;horizontalStack=0;resizeParent=1;resizeParentMax=0;resizeLast=0;collapsible=1;marginBottom=0;" parent="1" vertex="1">
                    <mxGeometry x="-515" y="466" width="180" height="90" as="geometry"/>
                </mxCell>
                <mxCell id="46" value="+&lt;&lt;&lt;constructor&gt;&gt;&gt;_init_(self)" style="text;strokeColor=none;fillColor=none;align=left;verticalAlign=middle;spacingLeft=4;spacingRight=4;overflow=hidden;points=[[0,0.5],[1,0.5]];portConstraint=eastwest;rotatable=0;" parent="45" vertex="1">
                    <mxGeometry y="30" width="180" height="30" as="geometry"/>
                </mxCell>
                <mxCell id="47" value="+menu(self): void" style="text;strokeColor=none;fillColor=none;align=left;verticalAlign=middle;spacingLeft=4;spacingRight=4;overflow=hidden;points=[[0,0.5],[1,0.5]];portConstraint=eastwest;rotatable=0;" parent="45" vertex="1">
                    <mxGeometry y="60" width="180" height="30" as="geometry"/>
                </mxCell>
                <mxCell id="48" value="InstructorRegistrationSystem" style="swimlane;fontStyle=0;childLayout=stackLayout;horizontal=1;startSize=30;horizontalStack=0;resizeParent=1;resizeParentMax=0;resizeLast=0;collapsible=1;marginBottom=0;" parent="1" vertex="1">
                    <mxGeometry x="-830" y="20" width="295" height="240" as="geometry"/>
                </mxCell>
                <mxCell id="49" value="-__registrationSystem1: RegistrationSystem" style="text;strokeColor=none;fillColor=none;align=left;verticalAlign=middle;spacingLeft=4;spacingRight=4;overflow=hidden;points=[[0,0.5],[1,0.5]];portConstraint=eastwest;rotatable=0;" parent="48" vertex="1">
                    <mxGeometry y="30" width="295" height="30" as="geometry"/>
                </mxCell>
                <mxCell id="50" value="+&lt;&lt;&lt;constructor&gt;&gt;&gt;_init_(self, registrationSystem)" style="text;strokeColor=none;fillColor=none;align=left;verticalAlign=middle;spacingLeft=4;spacingRight=4;overflow=hidden;points=[[0,0.5],[1,0.5]];portConstraint=eastwest;rotatable=0;" parent="48" vertex="1">
                    <mxGeometry y="60" width="295" height="30" as="geometry"/>
                </mxCell>
                <mxCell id="51" value="-__instructorLogin(self): void" style="text;strokeColor=none;fillColor=none;align=left;verticalAlign=middle;spacingLeft=4;spacingRight=4;overflow=hidden;points=[[0,0.5],[1,0.5]];portConstraint=eastwest;rotatable=0;" parent="48" vertex="1">
                    <mxGeometry y="90" width="295" height="30" as="geometry"/>
                </mxCell>
                <mxCell id="52" value="-__instructorMenu(self, currentUser): void" style="text;strokeColor=none;fillColor=none;align=left;verticalAlign=middle;spacingLeft=4;spacingRight=4;overflow=hidden;points=[[0,0.5],[1,0.5]];portConstraint=eastwest;rotatable=0;" parent="48" vertex="1">
                    <mxGeometry y="120" width="295" height="30" as="geometry"/>
                </mxCell>
                <mxCell id="141" value="-__showLectures(self, currentUser): void" style="text;strokeColor=none;fillColor=#666600;align=left;verticalAlign=middle;spacingLeft=4;spacingRight=4;overflow=hidden;points=[[0,0.5],[1,0.5]];portConstraint=eastwest;rotatable=0;" parent="48" vertex="1">
                    <mxGeometry y="150" width="295" height="30" as="geometry"/>
                </mxCell>
                <mxCell id="142" value="-__showStudents(self, currentUser): void" style="text;strokeColor=none;fillColor=#666600;align=left;verticalAlign=middle;spacingLeft=4;spacingRight=4;overflow=hidden;points=[[0,0.5],[1,0.5]];portConstraint=eastwest;rotatable=0;" parent="48" vertex="1">
                    <mxGeometry y="180" width="295" height="30" as="geometry"/>
                </mxCell>
                <mxCell id="53" value="-__signOut(self): void" style="text;strokeColor=none;fillColor=none;align=left;verticalAlign=middle;spacingLeft=4;spacingRight=4;overflow=hidden;points=[[0,0.5],[1,0.5]];portConstraint=eastwest;rotatable=0;" parent="48" vertex="1">
                    <mxGeometry y="210" width="295" height="30" as="geometry"/>
                </mxCell>
                <mxCell id="54" value="" style="endArrow=none;html=1;exitX=0;exitY=1.002;exitDx=0;exitDy=0;exitPerimeter=0;entryX=1.001;entryY=0.002;entryDx=0;entryDy=0;entryPerimeter=0;" parent="48" source="49" target="50" edge="1">
                    <mxGeometry width="50" height="50" relative="1" as="geometry">
                        <mxPoint x="110" y="300" as="sourcePoint"/>
                        <mxPoint x="160" y="250" as="targetPoint"/>
                    </mxGeometry>
                </mxCell>
                <mxCell id="55" value="AdvisorRegistrationSystem" style="swimlane;fontStyle=0;childLayout=stackLayout;horizontal=1;startSize=30;horizontalStack=0;resizeParent=1;resizeParentMax=0;resizeLast=0;collapsible=1;marginBottom=0;" parent="1" vertex="1">
                    <mxGeometry x="-830" y="300" width="295" height="232" as="geometry"/>
                </mxCell>
                <mxCell id="56" value="-registrationSystem1: RegistrationSystem" style="text;strokeColor=none;fillColor=none;align=left;verticalAlign=middle;spacingLeft=4;spacingRight=4;overflow=hidden;points=[[0,0.5],[1,0.5]];portConstraint=eastwest;rotatable=0;" parent="55" vertex="1">
                    <mxGeometry y="30" width="295" height="30" as="geometry"/>
                </mxCell>
                <mxCell id="348" value="- scanner: Scanner" style="text;strokeColor=none;fillColor=#990000;align=left;verticalAlign=top;spacingLeft=4;spacingRight=4;overflow=hidden;rotatable=0;points=[[0,0.5],[1,0.5]];portConstraint=eastwest;" vertex="1" parent="55">
                    <mxGeometry y="60" width="295" height="26" as="geometry"/>
                </mxCell>
                <mxCell id="349" value="- objects1: ObjectCreator" style="text;strokeColor=none;fillColor=#990000;align=left;verticalAlign=top;spacingLeft=4;spacingRight=4;overflow=hidden;rotatable=0;points=[[0,0.5],[1,0.5]];portConstraint=eastwest;" vertex="1" parent="55">
                    <mxGeometry y="86" width="295" height="26" as="geometry"/>
                </mxCell>
                <mxCell id="57" value="+&lt;&lt;&lt;constructor&gt;&gt;&gt;_init_(self, registrationSystem)" style="text;strokeColor=none;fillColor=none;align=left;verticalAlign=middle;spacingLeft=4;spacingRight=4;overflow=hidden;points=[[0,0.5],[1,0.5]];portConstraint=eastwest;rotatable=0;" parent="55" vertex="1">
                    <mxGeometry y="112" width="295" height="30" as="geometry"/>
                </mxCell>
                <mxCell id="58" value="-__advisorLogin(self): void" style="text;strokeColor=none;fillColor=none;align=left;verticalAlign=middle;spacingLeft=4;spacingRight=4;overflow=hidden;points=[[0,0.5],[1,0.5]];portConstraint=eastwest;rotatable=0;" parent="55" vertex="1">
                    <mxGeometry y="142" width="295" height="30" as="geometry"/>
                </mxCell>
                <mxCell id="59" value="-__advisorMenu(self, currentUser): void" style="text;strokeColor=none;fillColor=none;align=left;verticalAlign=middle;spacingLeft=4;spacingRight=4;overflow=hidden;points=[[0,0.5],[1,0.5]];portConstraint=eastwest;rotatable=0;" parent="55" vertex="1">
                    <mxGeometry y="172" width="295" height="30" as="geometry"/>
                </mxCell>
                <mxCell id="60" value="-__signOut(self): void" style="text;strokeColor=none;fillColor=none;align=left;verticalAlign=middle;spacingLeft=4;spacingRight=4;overflow=hidden;points=[[0,0.5],[1,0.5]];portConstraint=eastwest;rotatable=0;" parent="55" vertex="1">
                    <mxGeometry y="202" width="295" height="30" as="geometry"/>
                </mxCell>
                <mxCell id="61" value="" style="endArrow=none;html=1;entryX=0.001;entryY=0.094;entryDx=0;entryDy=0;entryPerimeter=0;exitX=0.983;exitY=0.094;exitDx=0;exitDy=0;exitPerimeter=0;" parent="55" source="57" target="57" edge="1">
                    <mxGeometry width="50" height="50" relative="1" as="geometry">
                        <mxPoint x="450" y="70" as="sourcePoint"/>
                        <mxPoint x="360" y="80" as="targetPoint"/>
                        <Array as="points">
                            <mxPoint x="148" y="115"/>
                        </Array>
                    </mxGeometry>
                </mxCell>
                <mxCell id="62" value="StudentRegistrationSystem" style="swimlane;fontStyle=0;childLayout=stackLayout;horizontal=1;startSize=30;horizontalStack=0;resizeParent=1;resizeParentMax=0;resizeLast=0;collapsible=1;marginBottom=0;" parent="1" vertex="1">
                    <mxGeometry x="-830" y="550" width="295" height="240" as="geometry"/>
                </mxCell>
                <mxCell id="63" value="-__registrationSystem1: RegistrationSystem" style="text;strokeColor=none;fillColor=none;align=left;verticalAlign=middle;spacingLeft=4;spacingRight=4;overflow=hidden;points=[[0,0.5],[1,0.5]];portConstraint=eastwest;rotatable=0;" parent="62" vertex="1">
                    <mxGeometry y="30" width="295" height="30" as="geometry"/>
                </mxCell>
                <mxCell id="64" value="+&lt;&lt;&lt;constructor&gt;&gt;&gt;_init_(self, registrationSystem)" style="text;strokeColor=none;fillColor=none;align=left;verticalAlign=middle;spacingLeft=4;spacingRight=4;overflow=hidden;points=[[0,0.5],[1,0.5]];portConstraint=eastwest;rotatable=0;" parent="62" vertex="1">
                    <mxGeometry y="60" width="295" height="30" as="geometry"/>
                </mxCell>
                <mxCell id="65" value="+studentLogin(self): void" style="text;strokeColor=none;fillColor=none;align=left;verticalAlign=middle;spacingLeft=4;spacingRight=4;overflow=hidden;points=[[0,0.5],[1,0.5]];portConstraint=eastwest;rotatable=0;" parent="62" vertex="1">
                    <mxGeometry y="90" width="295" height="30" as="geometry"/>
                </mxCell>
                <mxCell id="66" value="+studentMenu(self, currentUser): void" style="text;strokeColor=none;fillColor=none;align=left;verticalAlign=middle;spacingLeft=4;spacingRight=4;overflow=hidden;points=[[0,0.5],[1,0.5]];portConstraint=eastwest;rotatable=0;" parent="62" vertex="1">
                    <mxGeometry y="120" width="295" height="30" as="geometry"/>
                </mxCell>
                <mxCell id="229" value="+showTranscript(self, currentUser): void" style="text;strokeColor=none;fillColor=#666600;align=left;verticalAlign=middle;spacingLeft=4;spacingRight=4;overflow=hidden;points=[[0,0.5],[1,0.5]];portConstraint=eastwest;rotatable=0;" parent="62" vertex="1">
                    <mxGeometry y="150" width="295" height="30" as="geometry"/>
                </mxCell>
                <mxCell id="230" value="+showSchedule(self, currentUser): void" style="text;strokeColor=none;fillColor=#666600;align=left;verticalAlign=middle;spacingLeft=4;spacingRight=4;overflow=hidden;points=[[0,0.5],[1,0.5]];portConstraint=eastwest;rotatable=0;" parent="62" vertex="1">
                    <mxGeometry y="180" width="295" height="30" as="geometry"/>
                </mxCell>
                <mxCell id="67" value="+signOut(self): void" style="text;strokeColor=none;fillColor=none;align=left;verticalAlign=middle;spacingLeft=4;spacingRight=4;overflow=hidden;points=[[0,0.5],[1,0.5]];portConstraint=eastwest;rotatable=0;" parent="62" vertex="1">
                    <mxGeometry y="210" width="295" height="30" as="geometry"/>
                </mxCell>
                <mxCell id="68" value="" style="endArrow=none;html=1;exitX=0;exitY=1.002;exitDx=0;exitDy=0;exitPerimeter=0;entryX=1.001;entryY=0.002;entryDx=0;entryDy=0;entryPerimeter=0;" parent="62" source="63" target="64" edge="1">
                    <mxGeometry width="50" height="50" relative="1" as="geometry">
                        <mxPoint x="110" y="300" as="sourcePoint"/>
                        <mxPoint x="160" y="250" as="targetPoint"/>
                    </mxGeometry>
                </mxCell>
                <mxCell id="69" value="Debt" style="swimlane;fontStyle=1;align=center;verticalAlign=top;childLayout=stackLayout;horizontal=1;startSize=26;horizontalStack=0;resizeParent=1;resizeParentMax=0;resizeLast=0;collapsible=1;marginBottom=0;" parent="1" vertex="1">
                    <mxGeometry x="650" y="300" width="170" height="112" as="geometry"/>
                </mxCell>
                <mxCell id="70" value="- __amount: Float" style="text;strokeColor=none;fillColor=none;align=left;verticalAlign=top;spacingLeft=4;spacingRight=4;overflow=hidden;rotatable=0;points=[[0,0.5],[1,0.5]];portConstraint=eastwest;" parent="69" vertex="1">
                    <mxGeometry y="26" width="170" height="26" as="geometry"/>
                </mxCell>
                <mxCell id="71" value="- __student: Student" style="text;strokeColor=none;fillColor=none;align=left;verticalAlign=top;spacingLeft=4;spacingRight=4;overflow=hidden;rotatable=0;points=[[0,0.5],[1,0.5]];portConstraint=eastwest;" parent="69" vertex="1">
                    <mxGeometry y="52" width="170" height="26" as="geometry"/>
                </mxCell>
                <mxCell id="72" value="" style="line;strokeWidth=1;fillColor=none;align=left;verticalAlign=middle;spacingTop=-1;spacingLeft=3;spacingRight=3;rotatable=0;labelPosition=right;points=[];portConstraint=eastwest;strokeColor=inherit;" parent="69" vertex="1">
                    <mxGeometry y="78" width="170" height="8" as="geometry"/>
                </mxCell>
                <mxCell id="73" value="&lt;&lt;constructor&gt;&gt;__init__(self)" style="text;strokeColor=none;fillColor=none;align=left;verticalAlign=top;spacingLeft=4;spacingRight=4;overflow=hidden;rotatable=0;points=[[0,0.5],[1,0.5]];portConstraint=eastwest;fontStyle=0" parent="69" vertex="1">
                    <mxGeometry y="86" width="170" height="26" as="geometry"/>
                </mxCell>
                <mxCell id="74" value="LectureRegistrationApplication" style="swimlane;fontStyle=1;align=center;verticalAlign=top;childLayout=stackLayout;horizontal=1;startSize=26;horizontalStack=0;resizeParent=1;resizeParentMax=0;resizeLast=0;collapsible=1;marginBottom=0;" parent="1" vertex="1">
                    <mxGeometry x="290" y="442" width="380" height="138" as="geometry"/>
                </mxCell>
                <mxCell id="75" value="- __sessionsSentForApproval: Map&lt;LectureSession, ApprovalState&gt;" style="text;strokeColor=none;fillColor=none;align=left;verticalAlign=top;spacingLeft=4;spacingRight=4;overflow=hidden;rotatable=0;points=[[0,0.5],[1,0.5]];portConstraint=eastwest;" parent="74" vertex="1">
                    <mxGeometry y="26" width="380" height="26" as="geometry"/>
                </mxCell>
                <mxCell id="76" value="- __advisor: Advisor" style="text;strokeColor=none;fillColor=none;align=left;verticalAlign=top;spacingLeft=4;spacingRight=4;overflow=hidden;rotatable=0;points=[[0,0.5],[1,0.5]];portConstraint=eastwest;" parent="74" vertex="1">
                    <mxGeometry y="52" width="380" height="26" as="geometry"/>
                </mxCell>
                <mxCell id="77" value="- __student: Student" style="text;strokeColor=none;fillColor=none;align=left;verticalAlign=top;spacingLeft=4;spacingRight=4;overflow=hidden;rotatable=0;points=[[0,0.5],[1,0.5]];portConstraint=eastwest;" parent="74" vertex="1">
                    <mxGeometry y="78" width="380" height="26" as="geometry"/>
                </mxCell>
                <mxCell id="78" value="" style="line;strokeWidth=1;fillColor=none;align=left;verticalAlign=middle;spacingTop=-1;spacingLeft=3;spacingRight=3;rotatable=0;labelPosition=right;points=[];portConstraint=eastwest;strokeColor=inherit;" parent="74" vertex="1">
                    <mxGeometry y="104" width="380" height="8" as="geometry"/>
                </mxCell>
                <mxCell id="79" value="&lt;&lt;constructor&gt;&gt;LectureRegistrationApplication()" style="text;strokeColor=none;fillColor=none;align=left;verticalAlign=top;spacingLeft=4;spacingRight=4;overflow=hidden;rotatable=0;points=[[0,0.5],[1,0.5]];portConstraint=eastwest;fontStyle=0" parent="74" vertex="1">
                    <mxGeometry y="112" width="380" height="26" as="geometry"/>
                </mxCell>
                <mxCell id="80" value="Transcript" style="swimlane;fontStyle=1;align=center;verticalAlign=top;childLayout=stackLayout;horizontal=1;startSize=26;horizontalStack=0;resizeParent=1;resizeParentMax=0;resizeLast=0;collapsible=1;marginBottom=0;" parent="1" vertex="1">
                    <mxGeometry x="380" y="44" width="380" height="216" as="geometry"/>
                </mxCell>
                <mxCell id="81" value="- __student: Student" style="text;strokeColor=none;fillColor=none;align=left;verticalAlign=top;spacingLeft=4;spacingRight=4;overflow=hidden;rotatable=0;points=[[0,0.5],[1,0.5]];portConstraint=eastwest;" parent="80" vertex="1">
                    <mxGeometry y="26" width="380" height="26" as="geometry"/>
                </mxCell>
                <mxCell id="82" value="- __listOfSemester: List&lt;Semester&gt;" style="text;strokeColor=none;fillColor=none;align=left;verticalAlign=top;spacingLeft=4;spacingRight=4;overflow=hidden;rotatable=0;points=[[0,0.5],[1,0.5]];portConstraint=eastwest;" parent="80" vertex="1">
                    <mxGeometry y="52" width="380" height="26" as="geometry"/>
                </mxCell>
                <mxCell id="83" value="" style="line;strokeWidth=1;fillColor=none;align=left;verticalAlign=middle;spacingTop=-1;spacingLeft=3;spacingRight=3;rotatable=0;labelPosition=right;points=[];portConstraint=eastwest;strokeColor=inherit;" parent="80" vertex="1">
                    <mxGeometry y="78" width="380" height="8" as="geometry"/>
                </mxCell>
                <mxCell id="84" value="&lt;&lt;constructor&gt;&gt;Transcript()" style="text;strokeColor=none;fillColor=none;align=left;verticalAlign=top;spacingLeft=4;spacingRight=4;overflow=hidden;rotatable=0;points=[[0,0.5],[1,0.5]];portConstraint=eastwest;fontStyle=0" parent="80" vertex="1">
                    <mxGeometry y="86" width="380" height="26" as="geometry"/>
                </mxCell>
                <mxCell id="85" value="- __addSemester(self, semester): void" style="text;strokeColor=none;fillColor=none;align=left;verticalAlign=top;spacingLeft=4;spacingRight=4;overflow=hidden;rotatable=0;points=[[0,0.5],[1,0.5]];portConstraint=eastwest;" parent="80" vertex="1">
                    <mxGeometry y="112" width="380" height="26" as="geometry"/>
                </mxCell>
                <mxCell id="86" value="- __totalCreditsTakenCalculator(self, listOfSemester): Integer" style="text;strokeColor=none;fillColor=#666600;align=left;verticalAlign=top;spacingLeft=4;spacingRight=4;overflow=hidden;rotatable=0;points=[[0,0.5],[1,0.5]];portConstraint=eastwest;" parent="80" vertex="1">
                    <mxGeometry y="138" width="380" height="26" as="geometry"/>
                </mxCell>
                <mxCell id="87" value="- __totalCreditsCompletedCalculator(self, listOfSemester): Integer" style="text;strokeColor=none;fillColor=#666600;align=left;verticalAlign=top;spacingLeft=4;spacingRight=4;overflow=hidden;rotatable=0;points=[[0,0.5],[1,0.5]];portConstraint=eastwest;" parent="80" vertex="1">
                    <mxGeometry y="164" width="380" height="26" as="geometry"/>
                </mxCell>
                <mxCell id="88" value="- __pointsCalculator(self): Float" style="text;strokeColor=none;fillColor=#666600;align=left;verticalAlign=top;spacingLeft=4;spacingRight=4;overflow=hidden;rotatable=0;points=[[0,0.5],[1,0.5]];portConstraint=eastwest;" parent="80" vertex="1">
                    <mxGeometry y="190" width="380" height="26" as="geometry"/>
                </mxCell>
                <mxCell id="89" value="InstructorID" style="swimlane;fontStyle=1;align=center;verticalAlign=top;childLayout=stackLayout;horizontal=1;startSize=26;horizontalStack=0;resizeParent=1;resizeParentMax=0;resizeLast=0;collapsible=1;marginBottom=0;" parent="1" vertex="1">
                    <mxGeometry x="-650" y="976" width="180" height="138" as="geometry"/>
                </mxCell>
                <mxCell id="90" value="- __departmentCode: Integer" style="text;strokeColor=none;fillColor=none;align=left;verticalAlign=top;spacingLeft=4;spacingRight=4;overflow=hidden;rotatable=0;points=[[0,0.5],[1,0.5]];portConstraint=eastwest;" parent="89" vertex="1">
                    <mxGeometry y="26" width="180" height="26" as="geometry"/>
                </mxCell>
                <mxCell id="91" value="- __orderOfEntry: Integer" style="text;strokeColor=none;fillColor=none;align=left;verticalAlign=top;spacingLeft=4;spacingRight=4;overflow=hidden;rotatable=0;points=[[0,0.5],[1,0.5]];portConstraint=eastwest;" parent="89" vertex="1">
                    <mxGeometry y="52" width="180" height="26" as="geometry"/>
                </mxCell>
                <mxCell id="92" value="" style="line;strokeWidth=1;fillColor=none;align=left;verticalAlign=middle;spacingTop=-1;spacingLeft=3;spacingRight=3;rotatable=0;labelPosition=right;points=[];portConstraint=eastwest;strokeColor=inherit;" parent="89" vertex="1">
                    <mxGeometry y="78" width="180" height="8" as="geometry"/>
                </mxCell>
                <mxCell id="93" value="&lt;&lt;constructor&gt;&gt;InstructerID()" style="text;strokeColor=none;fillColor=none;align=left;verticalAlign=top;spacingLeft=4;spacingRight=4;overflow=hidden;rotatable=0;points=[[0,0.5],[1,0.5]];portConstraint=eastwest;fontStyle=0" parent="89" vertex="1">
                    <mxGeometry y="86" width="180" height="26" as="geometry"/>
                </mxCell>
                <mxCell id="94" value="- __digitFixer(Integer): String" style="text;strokeColor=none;fillColor=none;align=left;verticalAlign=top;spacingLeft=4;spacingRight=4;overflow=hidden;rotatable=0;points=[[0,0.5],[1,0.5]];portConstraint=eastwest;" parent="89" vertex="1">
                    <mxGeometry y="112" width="180" height="26" as="geometry"/>
                </mxCell>
                <mxCell id="95" style="edgeStyle=orthogonalEdgeStyle;rounded=0;orthogonalLoop=1;jettySize=auto;html=1;entryX=-0.021;entryY=0.792;entryDx=0;entryDy=0;entryPerimeter=0;startArrow=none;" parent="1" source="285" target="99" edge="1">
                    <mxGeometry relative="1" as="geometry">
                        <mxPoint x="-280" y="852" as="targetPoint"/>
                    </mxGeometry>
                </mxCell>
                <mxCell id="96" style="edgeStyle=orthogonalEdgeStyle;rounded=0;orthogonalLoop=1;jettySize=auto;html=1;entryX=1.031;entryY=0.792;entryDx=0;entryDy=0;entryPerimeter=0;startArrow=none;" parent="1" source="287" target="103" edge="1">
                    <mxGeometry relative="1" as="geometry">
                        <mxPoint x="-600" y="852" as="targetPoint"/>
                        <Array as="points"/>
                    </mxGeometry>
                </mxCell>
                <mxCell id="97" value="«interface»&lt;br&gt;&lt;b&gt;UniqeID&lt;/b&gt;" style="html=1;fontSize=24;" parent="1" vertex="1">
                    <mxGeometry x="-500" y="827" width="120" height="50" as="geometry"/>
                </mxCell>
                <mxCell id="98" value="LectureID" style="swimlane;fontStyle=1;align=center;verticalAlign=top;childLayout=stackLayout;horizontal=1;startSize=26;horizontalStack=0;resizeParent=1;resizeParentMax=0;resizeLast=0;collapsible=1;marginBottom=0;" parent="1" vertex="1">
                    <mxGeometry x="-260" y="806" width="170" height="86" as="geometry"/>
                </mxCell>
                <mxCell id="99" value="- __LectureCode: String" style="text;strokeColor=none;fillColor=none;align=left;verticalAlign=top;spacingLeft=4;spacingRight=4;overflow=hidden;rotatable=0;points=[[0,0.5],[1,0.5]];portConstraint=eastwest;" parent="98" vertex="1">
                    <mxGeometry y="26" width="170" height="26" as="geometry"/>
                </mxCell>
                <mxCell id="100" value="" style="line;strokeWidth=1;fillColor=none;align=left;verticalAlign=middle;spacingTop=-1;spacingLeft=3;spacingRight=3;rotatable=0;labelPosition=right;points=[];portConstraint=eastwest;strokeColor=inherit;" parent="98" vertex="1">
                    <mxGeometry y="52" width="170" height="8" as="geometry"/>
                </mxCell>
                <mxCell id="101" value="&lt;&lt;constructor&gt;&gt;LectudeID()" style="text;strokeColor=none;fillColor=none;align=left;verticalAlign=top;spacingLeft=4;spacingRight=4;overflow=hidden;rotatable=0;points=[[0,0.5],[1,0.5]];portConstraint=eastwest;fontStyle=0" parent="98" vertex="1">
                    <mxGeometry y="60" width="170" height="26" as="geometry"/>
                </mxCell>
                <mxCell id="102" value="SessionID" style="swimlane;fontStyle=1;align=center;verticalAlign=top;childLayout=stackLayout;horizontal=1;startSize=26;horizontalStack=0;resizeParent=1;resizeParentMax=0;resizeLast=0;collapsible=1;marginBottom=0;" parent="1" vertex="1">
                    <mxGeometry x="-790" y="806" width="170" height="86" as="geometry"/>
                </mxCell>
                <mxCell id="103" value="- __id: Integer" style="text;strokeColor=none;fillColor=none;align=left;verticalAlign=top;spacingLeft=4;spacingRight=4;overflow=hidden;rotatable=0;points=[[0,0.5],[1,0.5]];portConstraint=eastwest;" parent="102" vertex="1">
                    <mxGeometry y="26" width="170" height="26" as="geometry"/>
                </mxCell>
                <mxCell id="104" value="" style="line;strokeWidth=1;fillColor=none;align=left;verticalAlign=middle;spacingTop=-1;spacingLeft=3;spacingRight=3;rotatable=0;labelPosition=right;points=[];portConstraint=eastwest;strokeColor=inherit;" parent="102" vertex="1">
                    <mxGeometry y="52" width="170" height="8" as="geometry"/>
                </mxCell>
                <mxCell id="105" value="&lt;&lt;constructor&gt;&gt;SessionID()" style="text;strokeColor=none;fillColor=none;align=left;verticalAlign=top;spacingLeft=4;spacingRight=4;overflow=hidden;rotatable=0;points=[[0,0.5],[1,0.5]];portConstraint=eastwest;fontStyle=0" parent="102" vertex="1">
                    <mxGeometry y="60" width="170" height="26" as="geometry"/>
                </mxCell>
                <mxCell id="106" value="StudentID" style="swimlane;fontStyle=1;align=center;verticalAlign=top;childLayout=stackLayout;horizontal=1;startSize=26;horizontalStack=0;resizeParent=1;resizeParentMax=0;resizeLast=0;collapsible=1;marginBottom=0;" parent="1" vertex="1">
                    <mxGeometry x="-410" y="976" width="180" height="164" as="geometry"/>
                </mxCell>
                <mxCell id="107" value="- __departmentCode: Integer" style="text;strokeColor=none;fillColor=none;align=left;verticalAlign=top;spacingLeft=4;spacingRight=4;overflow=hidden;rotatable=0;points=[[0,0.5],[1,0.5]];portConstraint=eastwest;" parent="106" vertex="1">
                    <mxGeometry y="26" width="180" height="26" as="geometry"/>
                </mxCell>
                <mxCell id="108" value="- __yearCode: Integer" style="text;strokeColor=none;fillColor=none;align=left;verticalAlign=top;spacingLeft=4;spacingRight=4;overflow=hidden;rotatable=0;points=[[0,0.5],[1,0.5]];portConstraint=eastwest;" parent="106" vertex="1">
                    <mxGeometry y="52" width="180" height="26" as="geometry"/>
                </mxCell>
                <mxCell id="109" value="- __orderOfPlacement: Integer" style="text;strokeColor=none;fillColor=none;align=left;verticalAlign=top;spacingLeft=4;spacingRight=4;overflow=hidden;rotatable=0;points=[[0,0.5],[1,0.5]];portConstraint=eastwest;" parent="106" vertex="1">
                    <mxGeometry y="78" width="180" height="26" as="geometry"/>
                </mxCell>
                <mxCell id="110" value="" style="line;strokeWidth=1;fillColor=none;align=left;verticalAlign=middle;spacingTop=-1;spacingLeft=3;spacingRight=3;rotatable=0;labelPosition=right;points=[];portConstraint=eastwest;strokeColor=inherit;" parent="106" vertex="1">
                    <mxGeometry y="104" width="180" height="8" as="geometry"/>
                </mxCell>
                <mxCell id="111" value="&lt;&lt;constructor&gt;&gt;LectudeID()" style="text;strokeColor=none;fillColor=none;align=left;verticalAlign=top;spacingLeft=4;spacingRight=4;overflow=hidden;rotatable=0;points=[[0,0.5],[1,0.5]];portConstraint=eastwest;fontStyle=0" parent="106" vertex="1">
                    <mxGeometry y="112" width="180" height="26" as="geometry"/>
                </mxCell>
                <mxCell id="112" value="- __digitFixer(self,Integer): String" style="text;strokeColor=none;fillColor=none;align=left;verticalAlign=top;spacingLeft=4;spacingRight=4;overflow=hidden;rotatable=0;points=[[0,0.5],[1,0.5]];portConstraint=eastwest;" parent="106" vertex="1">
                    <mxGeometry y="138" width="180" height="26" as="geometry"/>
                </mxCell>
                <mxCell id="113" value="" style="endArrow=classic;html=1;rounded=0;entryX=0.5;entryY=0;entryDx=0;entryDy=0;exitX=0.25;exitY=1;exitDx=0;exitDy=0;startArrow=none;" parent="1" source="281" target="89" edge="1">
                    <mxGeometry width="50" height="50" relative="1" as="geometry">
                        <mxPoint x="-480" y="886" as="sourcePoint"/>
                        <mxPoint x="-380" y="976" as="targetPoint"/>
                    </mxGeometry>
                </mxCell>
                <mxCell id="114" value="" style="endArrow=classic;html=1;rounded=0;exitX=0.75;exitY=1;exitDx=0;exitDy=0;startArrow=none;" parent="1" source="283" edge="1">
                    <mxGeometry width="50" height="50" relative="1" as="geometry">
                        <mxPoint x="-430" y="1026" as="sourcePoint"/>
                        <mxPoint x="-325" y="976" as="targetPoint"/>
                    </mxGeometry>
                </mxCell>
                <mxCell id="115" value="DataManager" style="swimlane;fontStyle=0;childLayout=stackLayout;horizontal=1;startSize=30;horizontalStack=0;resizeParent=1;resizeParentMax=0;resizeLast=0;collapsible=1;marginBottom=0;" parent="1" vertex="1">
                    <mxGeometry x="502.5" y="1320" width="337.5" height="438" as="geometry"/>
                </mxCell>
                <mxCell id="116" value="-__singleInstance: DataManagerInstance" style="text;strokeColor=none;fillColor=none;align=left;verticalAlign=middle;spacingLeft=4;spacingRight=4;overflow=hidden;points=[[0,0.5],[1,0.5]];portConstraint=eastwest;rotatable=0;" parent="115" vertex="1">
                    <mxGeometry y="30" width="337.5" height="30" as="geometry"/>
                </mxCell>
                <mxCell id="336" value="&amp;nbsp;-jsonOperator: JsonOperator" style="text;html=1;strokeColor=none;fillColor=#990000;align=left;verticalAlign=middle;whiteSpace=wrap;rounded=0;" vertex="1" parent="115">
                    <mxGeometry y="60" width="337.5" height="30" as="geometry"/>
                </mxCell>
                <mxCell id="335" value="- cacheList: ArrayList&lt;Person&gt;" style="text;strokeColor=none;fillColor=#990000;align=left;verticalAlign=top;spacingLeft=4;spacingRight=4;overflow=hidden;rotatable=0;points=[[0,0.5],[1,0.5]];portConstraint=eastwest;" vertex="1" parent="115">
                    <mxGeometry y="90" width="337.5" height="26" as="geometry"/>
                </mxCell>
                <mxCell id="334" value="- listOfPeople: ArrayList&lt;Person&gt;&#10;" style="text;strokeColor=none;fillColor=#990000;align=left;verticalAlign=top;spacingLeft=4;spacingRight=4;overflow=hidden;rotatable=0;points=[[0,0.5],[1,0.5]];portConstraint=eastwest;" vertex="1" parent="115">
                    <mxGeometry y="116" width="337.5" height="26" as="geometry"/>
                </mxCell>
                <mxCell id="333" value="- listOfLectures: ArrayList&lt;Lecture&gt;" style="text;strokeColor=none;fillColor=#990000;align=left;verticalAlign=top;spacingLeft=4;spacingRight=4;overflow=hidden;rotatable=0;points=[[0,0.5],[1,0.5]];portConstraint=eastwest;" vertex="1" parent="115">
                    <mxGeometry y="142" width="337.5" height="26" as="geometry"/>
                </mxCell>
                <mxCell id="117" value="+&lt;&lt;&lt;constructor&gt;&gt;&gt;_init_(self)" style="text;strokeColor=none;fillColor=none;align=left;verticalAlign=middle;spacingLeft=4;spacingRight=4;overflow=hidden;points=[[0,0.5],[1,0.5]];portConstraint=eastwest;rotatable=0;" parent="115" vertex="1">
                    <mxGeometry y="168" width="337.5" height="30" as="geometry"/>
                </mxCell>
                <mxCell id="121" value="" style="endArrow=none;html=1;exitX=-0.005;exitY=-0.008;exitDx=0;exitDy=0;exitPerimeter=0;entryX=1.001;entryY=0.002;entryDx=0;entryDy=0;entryPerimeter=0;" parent="115" source="117" target="117" edge="1">
                    <mxGeometry width="50" height="50" relative="1" as="geometry">
                        <mxPoint x="110" y="300" as="sourcePoint"/>
                        <mxPoint x="160" y="250" as="targetPoint"/>
                    </mxGeometry>
                </mxCell>
                <mxCell id="344" value="&lt;span style=&quot;&quot;&gt;&amp;nbsp;+ searchAdvisor(String, FilterType): ArrayList&amp;lt;Advisor&lt;/span&gt;&lt;span style=&quot;&quot;&gt;&amp;gt;&lt;/span&gt;" style="text;html=1;strokeColor=none;fillColor=#990000;align=left;verticalAlign=middle;whiteSpace=wrap;rounded=0;" vertex="1" parent="115">
                    <mxGeometry y="198" width="337.5" height="30" as="geometry"/>
                </mxCell>
                <mxCell id="343" value="&lt;span style=&quot;&quot;&gt;&amp;nbsp;+ searchInstructor(String, FilterType): ArrayList&amp;lt;Instructor&lt;/span&gt;&lt;span style=&quot;&quot;&gt;&amp;gt;&lt;/span&gt;" style="text;html=1;strokeColor=none;fillColor=#990000;align=left;verticalAlign=middle;whiteSpace=wrap;rounded=0;" vertex="1" parent="115">
                    <mxGeometry y="228" width="337.5" height="30" as="geometry"/>
                </mxCell>
                <mxCell id="342" value="&lt;div style=&quot;&quot;&gt;&lt;span style=&quot;background-color: initial;&quot;&gt;&amp;nbsp;+ searchStudent(String, FilterType): ArrayList&amp;lt;Student&lt;/span&gt;&lt;span style=&quot;background-color: initial;&quot;&gt;&amp;gt;&lt;/span&gt;&lt;/div&gt;" style="text;html=1;strokeColor=none;fillColor=#990000;align=left;verticalAlign=middle;whiteSpace=wrap;rounded=0;" vertex="1" parent="115">
                    <mxGeometry y="258" width="337.5" height="30" as="geometry"/>
                </mxCell>
                <mxCell id="341" value="&amp;nbsp;+ searchLecture(String, FilterType): ArrayList&amp;lt;Lecture&amp;gt;" style="text;html=1;strokeColor=none;fillColor=#990000;align=left;verticalAlign=middle;whiteSpace=wrap;rounded=0;" vertex="1" parent="115">
                    <mxGeometry y="288" width="337.5" height="30" as="geometry"/>
                </mxCell>
                <mxCell id="340" value="&lt;span style=&quot;&quot;&gt;&amp;nbsp;+ findAdvisor(String, FilterType): Optional&amp;lt;Advisor&amp;gt;&lt;/span&gt;" style="text;html=1;strokeColor=none;fillColor=#990000;align=left;verticalAlign=middle;whiteSpace=wrap;rounded=0;" vertex="1" parent="115">
                    <mxGeometry y="318" width="337.5" height="30" as="geometry"/>
                </mxCell>
                <mxCell id="339" value="&lt;span style=&quot;&quot;&gt;&amp;nbsp;+ findInstructer(String, FilterType): Optional&amp;lt;Instructer&amp;gt;&lt;/span&gt;" style="text;html=1;strokeColor=none;fillColor=#990000;align=left;verticalAlign=middle;whiteSpace=wrap;rounded=0;" vertex="1" parent="115">
                    <mxGeometry y="348" width="337.5" height="30" as="geometry"/>
                </mxCell>
                <mxCell id="338" value="&lt;span style=&quot;&quot;&gt;&amp;nbsp;+ findStudent(String, FilterType): Optional&amp;lt;Student&amp;gt;&lt;/span&gt;" style="text;html=1;strokeColor=none;fillColor=#990000;align=left;verticalAlign=middle;whiteSpace=wrap;rounded=0;" vertex="1" parent="115">
                    <mxGeometry y="378" width="337.5" height="30" as="geometry"/>
                </mxCell>
                <mxCell id="337" value="&amp;nbsp;+ findLecture(String, FilterType): Optional&amp;lt;Lecture&amp;gt;" style="text;html=1;strokeColor=none;fillColor=#990000;align=left;verticalAlign=middle;whiteSpace=wrap;rounded=0;" vertex="1" parent="115">
                    <mxGeometry y="408" width="337.5" height="30" as="geometry"/>
                </mxCell>
                <mxCell id="122" value="DataManagerInstance" style="swimlane;fontStyle=0;childLayout=stackLayout;horizontal=1;startSize=30;horizontalStack=0;resizeParent=1;resizeParentMax=0;resizeLast=0;collapsible=1;marginBottom=0;fillColor=#666600;" parent="1" vertex="1">
                    <mxGeometry x="480" y="1776" width="340" height="480" as="geometry"/>
                </mxCell>
                <mxCell id="123" value="-__listOfLectures: list()" style="text;strokeColor=none;fillColor=#666600;align=left;verticalAlign=middle;spacingLeft=4;spacingRight=4;overflow=hidden;points=[[0,0.5],[1,0.5]];portConstraint=eastwest;rotatable=0;" parent="122" vertex="1">
                    <mxGeometry y="30" width="340" height="30" as="geometry"/>
                </mxCell>
                <mxCell id="127" value="-__listOfPeople: list()" style="text;strokeColor=none;fillColor=#666600;align=left;verticalAlign=middle;spacingLeft=4;spacingRight=4;overflow=hidden;points=[[0,0.5],[1,0.5]];portConstraint=eastwest;rotatable=0;" parent="122" vertex="1">
                    <mxGeometry y="60" width="340" height="30" as="geometry"/>
                </mxCell>
                <mxCell id="128" value="" style="endArrow=none;html=1;exitX=0;exitY=1;exitDx=0;exitDy=0;exitPerimeter=0;entryX=1;entryY=0;entryDx=0;entryDy=0;entryPerimeter=0;" parent="122" source="126" target="124" edge="1">
                    <mxGeometry width="50" height="50" relative="1" as="geometry">
                        <mxPoint y="120" as="sourcePoint"/>
                        <mxPoint x="50" y="70" as="targetPoint"/>
                    </mxGeometry>
                </mxCell>
                <mxCell id="126" value="-__jsonOperator: JsonOperator" style="text;strokeColor=none;fillColor=#666600;align=left;verticalAlign=middle;spacingLeft=4;spacingRight=4;overflow=hidden;points=[[0,0.5],[1,0.5]];portConstraint=eastwest;rotatable=0;" parent="122" vertex="1">
                    <mxGeometry y="90" width="340" height="30" as="geometry"/>
                </mxCell>
                <mxCell id="124" value="+&lt;&lt;&lt;constructor&gt;&gt;&gt;_init_(self)" style="text;strokeColor=none;fillColor=#666600;align=left;verticalAlign=middle;spacingLeft=4;spacingRight=4;overflow=hidden;points=[[0,0.5],[1,0.5]];portConstraint=eastwest;rotatable=0;" parent="122" vertex="1">
                    <mxGeometry y="120" width="340" height="30" as="geometry"/>
                </mxCell>
                <mxCell id="132" value="+ findLecture(self, key, filterType): Lecture" style="text;strokeColor=none;fillColor=#666600;align=left;verticalAlign=middle;spacingLeft=4;spacingRight=4;overflow=hidden;points=[[0,0.5],[1,0.5]];portConstraint=eastwest;rotatable=0;" parent="122" vertex="1">
                    <mxGeometry y="150" width="340" height="30" as="geometry"/>
                </mxCell>
                <mxCell id="131" value="+ findStudent(self, key, filterType): Student" style="text;strokeColor=none;fillColor=#666600;align=left;verticalAlign=middle;spacingLeft=4;spacingRight=4;overflow=hidden;points=[[0,0.5],[1,0.5]];portConstraint=eastwest;rotatable=0;" parent="122" vertex="1">
                    <mxGeometry y="180" width="340" height="30" as="geometry"/>
                </mxCell>
                <mxCell id="129" value="+ findAdvisor(self, key, filterType): Advisor" style="text;strokeColor=none;fillColor=#666600;align=left;verticalAlign=middle;spacingLeft=4;spacingRight=4;overflow=hidden;points=[[0,0.5],[1,0.5]];portConstraint=eastwest;rotatable=0;" parent="122" vertex="1">
                    <mxGeometry y="210" width="340" height="30" as="geometry"/>
                </mxCell>
                <mxCell id="130" value="+ searchLectures(self, key, filterType): list()" style="text;strokeColor=none;fillColor=#666600;align=left;verticalAlign=middle;spacingLeft=4;spacingRight=4;overflow=hidden;points=[[0,0.5],[1,0.5]];portConstraint=eastwest;rotatable=0;" parent="122" vertex="1">
                    <mxGeometry y="240" width="340" height="30" as="geometry"/>
                </mxCell>
                <mxCell id="133" value="+ searchStudents(self, key, filterType): list()" style="text;strokeColor=none;fillColor=#666600;align=left;verticalAlign=middle;spacingLeft=4;spacingRight=4;overflow=hidden;points=[[0,0.5],[1,0.5]];portConstraint=eastwest;rotatable=0;" parent="122" vertex="1">
                    <mxGeometry y="270" width="340" height="30" as="geometry"/>
                </mxCell>
                <mxCell id="134" value="+ searchAdvisors(self, key, filterType): list()" style="text;strokeColor=none;fillColor=#666600;align=left;verticalAlign=middle;spacingLeft=4;spacingRight=4;overflow=hidden;points=[[0,0.5],[1,0.5]];portConstraint=eastwest;rotatable=0;" parent="122" vertex="1">
                    <mxGeometry y="300" width="340" height="30" as="geometry"/>
                </mxCell>
                <mxCell id="135" value="+ searchLecturesUntilTerm(self, key, term, termYear): list()" style="text;strokeColor=none;fillColor=#666600;align=left;verticalAlign=middle;spacingLeft=4;spacingRight=4;overflow=hidden;points=[[0,0.5],[1,0.5]];portConstraint=eastwest;rotatable=0;" parent="122" vertex="1">
                    <mxGeometry y="330" width="340" height="30" as="geometry"/>
                </mxCell>
                <mxCell id="136" value="+ searchLecturesOfTerm(self, key, term): list()" style="text;strokeColor=none;fillColor=#666600;align=left;verticalAlign=middle;spacingLeft=4;spacingRight=4;overflow=hidden;points=[[0,0.5],[1,0.5]];portConstraint=eastwest;rotatable=0;" parent="122" vertex="1">
                    <mxGeometry y="360" width="340" height="30" as="geometry"/>
                </mxCell>
                <mxCell id="139" value="+ loadFiles(self): void" style="text;strokeColor=none;fillColor=#666600;align=left;verticalAlign=middle;spacingLeft=4;spacingRight=4;overflow=hidden;points=[[0,0.5],[1,0.5]];portConstraint=eastwest;rotatable=0;" parent="122" vertex="1">
                    <mxGeometry y="390" width="340" height="30" as="geometry"/>
                </mxCell>
                <mxCell id="138" value="+ saveFiles(self): void" style="text;strokeColor=none;fillColor=#666600;align=left;verticalAlign=middle;spacingLeft=4;spacingRight=4;overflow=hidden;points=[[0,0.5],[1,0.5]];portConstraint=eastwest;rotatable=0;" parent="122" vertex="1">
                    <mxGeometry y="420" width="340" height="30" as="geometry"/>
                </mxCell>
                <mxCell id="137" value="+ addStudents(self, studentsList): void" style="text;strokeColor=none;fillColor=#666600;align=left;verticalAlign=middle;spacingLeft=4;spacingRight=4;overflow=hidden;points=[[0,0.5],[1,0.5]];portConstraint=eastwest;rotatable=0;" parent="122" vertex="1">
                    <mxGeometry y="450" width="340" height="30" as="geometry"/>
                </mxCell>
                <mxCell id="145" value="JsonOperator" style="swimlane;fontStyle=0;childLayout=stackLayout;horizontal=1;startSize=30;horizontalStack=0;resizeParent=1;resizeParentMax=0;resizeLast=0;collapsible=1;marginBottom=0;" parent="1" vertex="1">
                    <mxGeometry x="50" y="1270" width="360" height="1050" as="geometry"/>
                </mxCell>
                <mxCell id="146" value="-__lectureJsonDicts: list()" style="text;strokeColor=none;fillColor=none;align=left;verticalAlign=middle;spacingLeft=4;spacingRight=4;overflow=hidden;points=[[0,0.5],[1,0.5]];portConstraint=eastwest;rotatable=0;" parent="145" vertex="1">
                    <mxGeometry y="30" width="360" height="30" as="geometry"/>
                </mxCell>
                <mxCell id="147" value="-__lectureObjectsList: list()" style="text;strokeColor=none;fillColor=none;align=left;verticalAlign=middle;spacingLeft=4;spacingRight=4;overflow=hidden;points=[[0,0.5],[1,0.5]];portConstraint=eastwest;rotatable=0;" parent="145" vertex="1">
                    <mxGeometry y="60" width="360" height="30" as="geometry"/>
                </mxCell>
                <mxCell id="148" value="" style="endArrow=none;html=1;exitX=0;exitY=1;exitDx=0;exitDy=0;exitPerimeter=0;entryX=1;entryY=0;entryDx=0;entryDy=0;entryPerimeter=0;" parent="145" source="149" target="150" edge="1">
                    <mxGeometry width="50" height="50" relative="1" as="geometry">
                        <mxPoint y="120" as="sourcePoint"/>
                        <mxPoint x="50" y="70" as="targetPoint"/>
                    </mxGeometry>
                </mxCell>
                <mxCell id="162" value="-__advisorJsonDicts: list()" style="text;strokeColor=none;fillColor=none;align=left;verticalAlign=middle;spacingLeft=4;spacingRight=4;overflow=hidden;points=[[0,0.5],[1,0.5]];portConstraint=eastwest;rotatable=0;" parent="145" vertex="1">
                    <mxGeometry y="90" width="360" height="30" as="geometry"/>
                </mxCell>
                <mxCell id="163" value="-__advisorObjectList: list()" style="text;strokeColor=none;fillColor=none;align=left;verticalAlign=middle;spacingLeft=4;spacingRight=4;overflow=hidden;points=[[0,0.5],[1,0.5]];portConstraint=eastwest;rotatable=0;" parent="145" vertex="1">
                    <mxGeometry y="120" width="360" height="30" as="geometry"/>
                </mxCell>
                <mxCell id="165" value="-__studentJsonDicts: list()" style="text;strokeColor=none;fillColor=none;align=left;verticalAlign=middle;spacingLeft=4;spacingRight=4;overflow=hidden;points=[[0,0.5],[1,0.5]];portConstraint=eastwest;rotatable=0;" parent="145" vertex="1">
                    <mxGeometry y="150" width="360" height="30" as="geometry"/>
                </mxCell>
                <mxCell id="166" value="-__studentObjectList: list()" style="text;strokeColor=none;fillColor=none;align=left;verticalAlign=middle;spacingLeft=4;spacingRight=4;overflow=hidden;points=[[0,0.5],[1,0.5]];portConstraint=eastwest;rotatable=0;" parent="145" vertex="1">
                    <mxGeometry y="180" width="360" height="30" as="geometry"/>
                </mxCell>
                <mxCell id="168" value="-__transcriptJsonDicts: list()" style="text;strokeColor=none;fillColor=none;align=left;verticalAlign=middle;spacingLeft=4;spacingRight=4;overflow=hidden;points=[[0,0.5],[1,0.5]];portConstraint=eastwest;rotatable=0;" parent="145" vertex="1">
                    <mxGeometry y="210" width="360" height="30" as="geometry"/>
                </mxCell>
                <mxCell id="167" value="-__transcriptObjectList: list()" style="text;strokeColor=none;fillColor=#666600;align=left;verticalAlign=middle;spacingLeft=4;spacingRight=4;overflow=hidden;points=[[0,0.5],[1,0.5]];portConstraint=eastwest;rotatable=0;" parent="145" vertex="1">
                    <mxGeometry y="240" width="360" height="30" as="geometry"/>
                </mxCell>
                <mxCell id="315" value="&amp;nbsp;- namePool: NamePool" style="text;html=1;strokeColor=none;fillColor=#990000;align=left;verticalAlign=middle;whiteSpace=wrap;rounded=0;" vertex="1" parent="145">
                    <mxGeometry y="270" width="360" height="30" as="geometry"/>
                </mxCell>
                <mxCell id="149" value="-__metaData: list()" style="text;strokeColor=none;fillColor=#990000;align=left;verticalAlign=middle;spacingLeft=4;spacingRight=4;overflow=hidden;points=[[0,0.5],[1,0.5]];portConstraint=eastwest;rotatable=0;" parent="145" vertex="1">
                    <mxGeometry y="300" width="360" height="30" as="geometry"/>
                </mxCell>
                <mxCell id="150" value="+&lt;&lt;&lt;constructor&gt;&gt;&gt;_init_(self)" style="text;strokeColor=none;fillColor=none;align=left;verticalAlign=middle;spacingLeft=4;spacingRight=4;overflow=hidden;points=[[0,0.5],[1,0.5]];portConstraint=eastwest;rotatable=0;" parent="145" vertex="1">
                    <mxGeometry y="330" width="360" height="30" as="geometry"/>
                </mxCell>
                <mxCell id="151" value="+ readMetaData(self): void" style="text;strokeColor=none;fillColor=none;align=left;verticalAlign=middle;spacingLeft=4;spacingRight=4;overflow=hidden;points=[[0,0.5],[1,0.5]];portConstraint=eastwest;rotatable=0;" parent="145" vertex="1">
                    <mxGeometry y="360" width="360" height="30" as="geometry"/>
                </mxCell>
                <mxCell id="152" value="+ readNamePool(self): void" style="text;strokeColor=none;fillColor=none;align=left;verticalAlign=middle;spacingLeft=4;spacingRight=4;overflow=hidden;points=[[0,0.5],[1,0.5]];portConstraint=eastwest;rotatable=0;" parent="145" vertex="1">
                    <mxGeometry y="390" width="360" height="30" as="geometry"/>
                </mxCell>
                <mxCell id="153" value="+ readLectures(self): void" style="text;strokeColor=none;fillColor=none;align=left;verticalAlign=middle;spacingLeft=4;spacingRight=4;overflow=hidden;points=[[0,0.5],[1,0.5]];portConstraint=eastwest;rotatable=0;" parent="145" vertex="1">
                    <mxGeometry y="420" width="360" height="30" as="geometry"/>
                </mxCell>
                <mxCell id="154" value="- __generateLectureObjects(self): void" style="text;strokeColor=none;fillColor=#666600;align=left;verticalAlign=middle;spacingLeft=4;spacingRight=4;overflow=hidden;points=[[0,0.5],[1,0.5]];portConstraint=eastwest;rotatable=0;" parent="145" vertex="1">
                    <mxGeometry y="450" width="360" height="30" as="geometry"/>
                </mxCell>
                <mxCell id="155" value="- __generateLectureSessions(self, lectureSessions, lecture): list()" style="text;strokeColor=none;fillColor=#666600;align=left;verticalAlign=middle;spacingLeft=4;spacingRight=4;overflow=hidden;points=[[0,0.5],[1,0.5]];portConstraint=eastwest;rotatable=0;" parent="145" vertex="1">
                    <mxGeometry y="480" width="360" height="30" as="geometry"/>
                </mxCell>
                <mxCell id="156" value="+ readAdvisors(self): void" style="text;strokeColor=none;fillColor=none;align=left;verticalAlign=middle;spacingLeft=4;spacingRight=4;overflow=hidden;points=[[0,0.5],[1,0.5]];portConstraint=eastwest;rotatable=0;" parent="145" vertex="1">
                    <mxGeometry y="510" width="360" height="30" as="geometry"/>
                </mxCell>
                <mxCell id="157" value="- __generateAdvisors(self): void" style="text;strokeColor=none;fillColor=#666600;align=left;verticalAlign=middle;spacingLeft=4;spacingRight=4;overflow=hidden;points=[[0,0.5],[1,0.5]];portConstraint=eastwest;rotatable=0;" parent="145" vertex="1">
                    <mxGeometry y="540" width="360" height="30" as="geometry"/>
                </mxCell>
                <mxCell id="158" value="+ readStudents(self): void" style="text;strokeColor=none;fillColor=none;align=left;verticalAlign=middle;spacingLeft=4;spacingRight=4;overflow=hidden;points=[[0,0.5],[1,0.5]];portConstraint=eastwest;rotatable=0;" parent="145" vertex="1">
                    <mxGeometry y="570" width="360" height="30" as="geometry"/>
                </mxCell>
                <mxCell id="159" value="- __generateStudentObjects(self): void" style="text;strokeColor=none;fillColor=#666600;align=left;verticalAlign=middle;spacingLeft=4;spacingRight=4;overflow=hidden;points=[[0,0.5],[1,0.5]];portConstraint=eastwest;rotatable=0;" parent="145" vertex="1">
                    <mxGeometry y="600" width="360" height="30" as="geometry"/>
                </mxCell>
                <mxCell id="160" value="+ readTranscripts(self): void" style="text;strokeColor=none;fillColor=none;align=left;verticalAlign=middle;spacingLeft=4;spacingRight=4;overflow=hidden;points=[[0,0.5],[1,0.5]];portConstraint=eastwest;rotatable=0;" parent="145" vertex="1">
                    <mxGeometry y="630" width="360" height="30" as="geometry"/>
                </mxCell>
                <mxCell id="161" value="+ pairObjects(self): void" style="text;strokeColor=none;fillColor=#666600;align=left;verticalAlign=middle;spacingLeft=4;spacingRight=4;overflow=hidden;points=[[0,0.5],[1,0.5]];portConstraint=eastwest;rotatable=0;" parent="145" vertex="1">
                    <mxGeometry y="660" width="360" height="30" as="geometry"/>
                </mxCell>
                <mxCell id="170" value="- __pairLectures(self): void" style="text;strokeColor=none;fillColor=#666600;align=left;verticalAlign=middle;spacingLeft=4;spacingRight=4;overflow=hidden;points=[[0,0.5],[1,0.5]];portConstraint=eastwest;rotatable=0;" parent="145" vertex="1">
                    <mxGeometry y="690" width="360" height="30" as="geometry"/>
                </mxCell>
                <mxCell id="171" value="- __pairStudents(self): void" style="text;strokeColor=none;fillColor=#666600;align=left;verticalAlign=middle;spacingLeft=4;spacingRight=4;overflow=hidden;points=[[0,0.5],[1,0.5]];portConstraint=eastwest;rotatable=0;" parent="145" vertex="1">
                    <mxGeometry y="720" width="360" height="30" as="geometry"/>
                </mxCell>
                <mxCell id="169" value="+ pairAdvisors(self): void" style="text;strokeColor=none;fillColor=#666600;align=left;verticalAlign=middle;spacingLeft=4;spacingRight=4;overflow=hidden;points=[[0,0.5],[1,0.5]];portConstraint=eastwest;rotatable=0;" parent="145" vertex="1">
                    <mxGeometry y="750" width="360" height="30" as="geometry"/>
                </mxCell>
                <mxCell id="172" value="+ pairTranscripts(self, student): void" style="text;strokeColor=none;fillColor=#666600;align=left;verticalAlign=middle;spacingLeft=4;spacingRight=4;overflow=hidden;points=[[0,0.5],[1,0.5]];portConstraint=eastwest;rotatable=0;" parent="145" vertex="1">
                    <mxGeometry y="780" width="360" height="30" as="geometry"/>
                </mxCell>
                <mxCell id="173" value="+ saveStudent(self, student): void" style="text;strokeColor=none;fillColor=#666600;align=left;verticalAlign=middle;spacingLeft=4;spacingRight=4;overflow=hidden;points=[[0,0.5],[1,0.5]];portConstraint=eastwest;rotatable=0;" parent="145" vertex="1">
                    <mxGeometry y="810" width="360" height="30" as="geometry"/>
                </mxCell>
                <mxCell id="174" value="+ saveAdvisor(self, advisor): void" style="text;strokeColor=none;fillColor=#666600;align=left;verticalAlign=middle;spacingLeft=4;spacingRight=4;overflow=hidden;points=[[0,0.5],[1,0.5]];portConstraint=eastwest;rotatable=0;" parent="145" vertex="1">
                    <mxGeometry y="840" width="360" height="30" as="geometry"/>
                </mxCell>
                <mxCell id="175" value="+ saveLecture(self, lecture): void" style="text;strokeColor=none;fillColor=#666600;align=left;verticalAlign=middle;spacingLeft=4;spacingRight=4;overflow=hidden;points=[[0,0.5],[1,0.5]];portConstraint=eastwest;rotatable=0;" parent="145" vertex="1">
                    <mxGeometry y="870" width="360" height="30" as="geometry"/>
                </mxCell>
                <mxCell id="176" value="+ saveTranscript(self, transcript): void" style="text;strokeColor=none;fillColor=#666600;align=left;verticalAlign=middle;spacingLeft=4;spacingRight=4;overflow=hidden;points=[[0,0.5],[1,0.5]];portConstraint=eastwest;rotatable=0;" parent="145" vertex="1">
                    <mxGeometry y="900" width="360" height="30" as="geometry"/>
                </mxCell>
                <mxCell id="177" value="- __findLecture(self, id): Lecture" style="text;strokeColor=none;fillColor=#666600;align=left;verticalAlign=middle;spacingLeft=4;spacingRight=4;overflow=hidden;points=[[0,0.5],[1,0.5]];portConstraint=eastwest;rotatable=0;" parent="145" vertex="1">
                    <mxGeometry y="930" width="360" height="30" as="geometry"/>
                </mxCell>
                <mxCell id="178" value="- __findAdvisor(self, id): Advisor" style="text;strokeColor=none;fillColor=#666600;align=left;verticalAlign=middle;spacingLeft=4;spacingRight=4;overflow=hidden;points=[[0,0.5],[1,0.5]];portConstraint=eastwest;rotatable=0;" parent="145" vertex="1">
                    <mxGeometry y="960" width="360" height="30" as="geometry"/>
                </mxCell>
                <mxCell id="179" value="- __findStudent(self, id): Student" style="text;strokeColor=none;fillColor=#666600;align=left;verticalAlign=middle;spacingLeft=4;spacingRight=4;overflow=hidden;points=[[0,0.5],[1,0.5]];portConstraint=eastwest;rotatable=0;" parent="145" vertex="1">
                    <mxGeometry y="990" width="360" height="30" as="geometry"/>
                </mxCell>
                <mxCell id="180" value="- __strDateTime(self, dtstr): DateTime" style="text;strokeColor=none;fillColor=#666600;align=left;verticalAlign=middle;spacingLeft=4;spacingRight=4;overflow=hidden;points=[[0,0.5],[1,0.5]];portConstraint=eastwest;rotatable=0;" parent="145" vertex="1">
                    <mxGeometry y="1020" width="360" height="30" as="geometry"/>
                </mxCell>
                <mxCell id="181" value="Lecture" style="swimlane;fontStyle=1;align=center;verticalAlign=top;childLayout=stackLayout;horizontal=1;startSize=26;horizontalStack=0;resizeParent=1;resizeParentMax=0;resizeLast=0;collapsible=1;marginBottom=0;" parent="1" vertex="1">
                    <mxGeometry x="540" y="590" width="290" height="372" as="geometry"/>
                </mxCell>
                <mxCell id="204" value="-__id: id" style="text;strokeColor=none;fillColor=none;align=left;verticalAlign=top;spacingLeft=4;spacingRight=4;overflow=hidden;rotatable=0;points=[[0,0.5],[1,0.5]];portConstraint=eastwest;" parent="181" vertex="1">
                    <mxGeometry y="26" width="290" height="26" as="geometry"/>
                </mxCell>
                <mxCell id="205" value="-__sessions: list()" style="text;strokeColor=none;fillColor=none;align=left;verticalAlign=top;spacingLeft=4;spacingRight=4;overflow=hidden;rotatable=0;points=[[0,0.5],[1,0.5]];portConstraint=eastwest;" parent="181" vertex="1">
                    <mxGeometry y="52" width="290" height="26" as="geometry"/>
                </mxCell>
                <mxCell id="206" value="-__prerequisite: Lecture" style="text;strokeColor=none;fillColor=none;align=left;verticalAlign=top;spacingLeft=4;spacingRight=4;overflow=hidden;rotatable=0;points=[[0,0.5],[1,0.5]];portConstraint=eastwest;" parent="181" vertex="1">
                    <mxGeometry y="78" width="290" height="26" as="geometry"/>
                </mxCell>
                <mxCell id="207" value="-__name: str" style="text;strokeColor=none;fillColor=none;align=left;verticalAlign=top;spacingLeft=4;spacingRight=4;overflow=hidden;rotatable=0;points=[[0,0.5],[1,0.5]];portConstraint=eastwest;" parent="181" vertex="1">
                    <mxGeometry y="104" width="290" height="26" as="geometry"/>
                </mxCell>
                <mxCell id="208" value="-__lectureType: LectureType" style="text;strokeColor=none;fillColor=none;align=left;verticalAlign=top;spacingLeft=4;spacingRight=4;overflow=hidden;rotatable=0;points=[[0,0.5],[1,0.5]];portConstraint=eastwest;" parent="181" vertex="1">
                    <mxGeometry y="130" width="290" height="26" as="geometry"/>
                </mxCell>
                <mxCell id="209" value="-__credit: int" style="text;strokeColor=none;fillColor=none;align=left;verticalAlign=top;spacingLeft=4;spacingRight=4;overflow=hidden;rotatable=0;points=[[0,0.5],[1,0.5]];portConstraint=eastwest;" parent="181" vertex="1">
                    <mxGeometry y="156" width="290" height="26" as="geometry"/>
                </mxCell>
                <mxCell id="210" value="-__quota: int" style="text;strokeColor=none;fillColor=none;align=left;verticalAlign=top;spacingLeft=4;spacingRight=4;overflow=hidden;rotatable=0;points=[[0,0.5],[1,0.5]];portConstraint=eastwest;" parent="181" vertex="1">
                    <mxGeometry y="182" width="290" height="26" as="geometry"/>
                </mxCell>
                <mxCell id="211" value="-__term: Term" style="text;strokeColor=none;fillColor=#666600;align=left;verticalAlign=top;spacingLeft=4;spacingRight=4;overflow=hidden;rotatable=0;points=[[0,0.5],[1,0.5]];portConstraint=eastwest;" parent="181" vertex="1">
                    <mxGeometry y="208" width="290" height="26" as="geometry"/>
                </mxCell>
                <mxCell id="212" value="-__termYear: TermYear" style="text;strokeColor=none;fillColor=#666600;align=left;verticalAlign=top;spacingLeft=4;spacingRight=4;overflow=hidden;rotatable=0;points=[[0,0.5],[1,0.5]];portConstraint=eastwest;" parent="181" vertex="1">
                    <mxGeometry y="234" width="290" height="26" as="geometry"/>
                </mxCell>
                <mxCell id="184" value="" style="line;strokeWidth=1;fillColor=none;align=left;verticalAlign=middle;spacingTop=-1;spacingLeft=3;spacingRight=3;rotatable=0;labelPosition=right;points=[];portConstraint=eastwest;strokeColor=inherit;" parent="181" vertex="1">
                    <mxGeometry y="260" width="290" height="8" as="geometry"/>
                </mxCell>
                <mxCell id="185" value="&lt;&lt;constructor&gt;&gt;__init__(self)" style="text;strokeColor=none;fillColor=none;align=left;verticalAlign=top;spacingLeft=4;spacingRight=4;overflow=hidden;rotatable=0;points=[[0,0.5],[1,0.5]];portConstraint=eastwest;fontStyle=0" parent="181" vertex="1">
                    <mxGeometry y="268" width="290" height="26" as="geometry"/>
                </mxCell>
                <mxCell id="186" value="+ removeLectureSession(self, lectureSession): void" style="text;strokeColor=none;fillColor=none;align=left;verticalAlign=top;spacingLeft=4;spacingRight=4;overflow=hidden;rotatable=0;points=[[0,0.5],[1,0.5]];portConstraint=eastwest;fontStyle=0" parent="181" vertex="1">
                    <mxGeometry y="294" width="290" height="26" as="geometry"/>
                </mxCell>
                <mxCell id="187" value="+ addPrerequisiteLecture(self, lecture): void" style="text;strokeColor=none;fillColor=none;align=left;verticalAlign=top;spacingLeft=4;spacingRight=4;overflow=hidden;rotatable=0;points=[[0,0.5],[1,0.5]];portConstraint=eastwest;fontStyle=0" parent="181" vertex="1">
                    <mxGeometry y="320" width="290" height="26" as="geometry"/>
                </mxCell>
                <mxCell id="188" value="+ removePrerequisiteLecture(self): void" style="text;strokeColor=none;fillColor=none;align=left;verticalAlign=top;spacingLeft=4;spacingRight=4;overflow=hidden;rotatable=0;points=[[0,0.5],[1,0.5]];portConstraint=eastwest;fontStyle=0" parent="181" vertex="1">
                    <mxGeometry y="346" width="290" height="26" as="geometry"/>
                </mxCell>
                <mxCell id="189" value="LectureSession" style="swimlane;fontStyle=1;align=center;verticalAlign=top;childLayout=stackLayout;horizontal=1;startSize=26;horizontalStack=0;resizeParent=1;resizeParentMax=0;resizeLast=0;collapsible=1;marginBottom=0;" parent="1" vertex="1">
                    <mxGeometry x="320" y="610" width="170" height="242" as="geometry"/>
                </mxCell>
                <mxCell id="190" value="-__sessionID: SessionID" style="text;strokeColor=none;fillColor=none;align=left;verticalAlign=top;spacingLeft=4;spacingRight=4;overflow=hidden;rotatable=0;points=[[0,0.5],[1,0.5]];portConstraint=eastwest;" parent="189" vertex="1">
                    <mxGeometry y="26" width="170" height="26" as="geometry"/>
                </mxCell>
                <mxCell id="191" value="- __lecture: Lecture" style="text;strokeColor=none;fillColor=none;align=left;verticalAlign=top;spacingLeft=4;spacingRight=4;overflow=hidden;rotatable=0;points=[[0,0.5],[1,0.5]];portConstraint=eastwest;" parent="189" vertex="1">
                    <mxGeometry y="52" width="170" height="26" as="geometry"/>
                </mxCell>
                <mxCell id="199" value="- __sessionHours: list()" style="text;strokeColor=none;fillColor=none;align=left;verticalAlign=top;spacingLeft=4;spacingRight=4;overflow=hidden;rotatable=0;points=[[0,0.5],[1,0.5]];portConstraint=eastwest;" parent="189" vertex="1">
                    <mxGeometry y="78" width="170" height="26" as="geometry"/>
                </mxCell>
                <mxCell id="200" value="-__sessionType: SessionType" style="text;strokeColor=none;fillColor=none;align=left;verticalAlign=top;spacingLeft=4;spacingRight=4;overflow=hidden;rotatable=0;points=[[0,0.5],[1,0.5]];portConstraint=eastwest;" parent="189" vertex="1">
                    <mxGeometry y="104" width="170" height="26" as="geometry"/>
                </mxCell>
                <mxCell id="201" value="- __instructor: Instructor" style="text;strokeColor=none;fillColor=none;align=left;verticalAlign=top;spacingLeft=4;spacingRight=4;overflow=hidden;rotatable=0;points=[[0,0.5],[1,0.5]];portConstraint=eastwest;" parent="189" vertex="1">
                    <mxGeometry y="130" width="170" height="26" as="geometry"/>
                </mxCell>
                <mxCell id="202" value="- __listOfAssistans: list()" style="text;strokeColor=none;fillColor=none;align=left;verticalAlign=top;spacingLeft=4;spacingRight=4;overflow=hidden;rotatable=0;points=[[0,0.5],[1,0.5]];portConstraint=eastwest;" parent="189" vertex="1">
                    <mxGeometry y="156" width="170" height="26" as="geometry"/>
                </mxCell>
                <mxCell id="203" value="- __listOfStudents: list()" style="text;strokeColor=none;fillColor=none;align=left;verticalAlign=top;spacingLeft=4;spacingRight=4;overflow=hidden;rotatable=0;points=[[0,0.5],[1,0.5]];portConstraint=eastwest;" parent="189" vertex="1">
                    <mxGeometry y="182" width="170" height="26" as="geometry"/>
                </mxCell>
                <mxCell id="192" value="" style="line;strokeWidth=1;fillColor=none;align=left;verticalAlign=middle;spacingTop=-1;spacingLeft=3;spacingRight=3;rotatable=0;labelPosition=right;points=[];portConstraint=eastwest;strokeColor=inherit;" parent="189" vertex="1">
                    <mxGeometry y="208" width="170" height="8" as="geometry"/>
                </mxCell>
                <mxCell id="193" value="&lt;&lt;constructor&gt;&gt;__init__(self)" style="text;strokeColor=none;fillColor=none;align=left;verticalAlign=top;spacingLeft=4;spacingRight=4;overflow=hidden;rotatable=0;points=[[0,0.5],[1,0.5]];portConstraint=eastwest;fontStyle=0" parent="189" vertex="1">
                    <mxGeometry y="216" width="170" height="26" as="geometry"/>
                </mxCell>
                <mxCell id="214" value="Logger" style="swimlane;fontStyle=1;align=center;verticalAlign=top;childLayout=stackLayout;horizontal=1;startSize=26;horizontalStack=0;resizeParent=1;resizeParentMax=0;resizeLast=0;collapsible=1;marginBottom=0;" parent="1" vertex="1">
                    <mxGeometry x="480" y="989" width="320" height="216" as="geometry"/>
                </mxCell>
                <mxCell id="215" value="-__loggers: dict()" style="text;strokeColor=none;fillColor=none;align=left;verticalAlign=top;spacingLeft=4;spacingRight=4;overflow=hidden;rotatable=0;points=[[0,0.5],[1,0.5]];portConstraint=eastwest;" parent="214" vertex="1">
                    <mxGeometry y="26" width="320" height="26" as="geometry"/>
                </mxCell>
                <mxCell id="345" value="- randomOutputFile: RandomAccessFile" style="text;strokeColor=none;fillColor=#990000;align=left;verticalAlign=top;spacingLeft=4;spacingRight=4;overflow=hidden;rotatable=0;points=[[0,0.5],[1,0.5]];portConstraint=eastwest;" vertex="1" parent="214">
                    <mxGeometry y="52" width="320" height="26" as="geometry"/>
                </mxCell>
                <mxCell id="346" value="- outputFile: outputFile" style="text;strokeColor=none;fillColor=#990000;align=left;verticalAlign=top;spacingLeft=4;spacingRight=4;overflow=hidden;rotatable=0;points=[[0,0.5],[1,0.5]];portConstraint=eastwest;" vertex="1" parent="214">
                    <mxGeometry y="78" width="320" height="26" as="geometry"/>
                </mxCell>
                <mxCell id="224" value="" style="line;strokeWidth=1;fillColor=none;align=left;verticalAlign=middle;spacingTop=-1;spacingLeft=3;spacingRight=3;rotatable=0;labelPosition=right;points=[];portConstraint=eastwest;strokeColor=inherit;" parent="214" vertex="1">
                    <mxGeometry y="104" width="320" height="8" as="geometry"/>
                </mxCell>
                <mxCell id="225" value="&lt;&lt;constructor&gt;&gt;__init__(self, fileNameWithoutExtension)" style="text;strokeColor=none;fillColor=none;align=left;verticalAlign=top;spacingLeft=4;spacingRight=4;overflow=hidden;rotatable=0;points=[[0,0.5],[1,0.5]];portConstraint=eastwest;fontStyle=0" parent="214" vertex="1">
                    <mxGeometry y="112" width="320" height="26" as="geometry"/>
                </mxCell>
                <mxCell id="226" value="+ error(self, text, *args): void" style="text;strokeColor=none;fillColor=none;align=left;verticalAlign=top;spacingLeft=4;spacingRight=4;overflow=hidden;rotatable=0;points=[[0,0.5],[1,0.5]];portConstraint=eastwest;fontStyle=0" parent="214" vertex="1">
                    <mxGeometry y="138" width="320" height="26" as="geometry"/>
                </mxCell>
                <mxCell id="227" value="+ info(self, text, *args): void" style="text;strokeColor=none;fillColor=none;align=left;verticalAlign=top;spacingLeft=4;spacingRight=4;overflow=hidden;rotatable=0;points=[[0,0.5],[1,0.5]];portConstraint=eastwest;fontStyle=0" parent="214" vertex="1">
                    <mxGeometry y="164" width="320" height="26" as="geometry"/>
                </mxCell>
                <mxCell id="347" value="- log(String, String): void" style="text;strokeColor=none;fillColor=#990000;align=left;verticalAlign=top;spacingLeft=4;spacingRight=4;overflow=hidden;rotatable=0;points=[[0,0.5],[1,0.5]];portConstraint=eastwest;" vertex="1" parent="214">
                    <mxGeometry y="190" width="320" height="26" as="geometry"/>
                </mxCell>
                <mxCell id="232" value="Schedule" style="swimlane;fontStyle=1;align=center;verticalAlign=top;childLayout=stackLayout;horizontal=1;startSize=26;horizontalStack=0;resizeParent=1;resizeParentMax=0;resizeLast=0;collapsible=1;marginBottom=0;" parent="1" vertex="1">
                    <mxGeometry x="100" y="679" width="190" height="194" as="geometry"/>
                </mxCell>
                <mxCell id="236" value="-__person: Person" style="text;strokeColor=none;fillColor=none;align=left;verticalAlign=top;spacingLeft=4;spacingRight=4;overflow=hidden;rotatable=0;points=[[0,0.5],[1,0.5]];portConstraint=eastwest;" parent="232" vertex="1">
                    <mxGeometry y="26" width="190" height="26" as="geometry"/>
                </mxCell>
                <mxCell id="237" value="-__listOfLectureSessions: list()" style="text;strokeColor=none;fillColor=none;align=left;verticalAlign=top;spacingLeft=4;spacingRight=4;overflow=hidden;rotatable=0;points=[[0,0.5],[1,0.5]];portConstraint=eastwest;" parent="232" vertex="1">
                    <mxGeometry y="52" width="190" height="26" as="geometry"/>
                </mxCell>
                <mxCell id="238" value="-__term: Term" style="text;strokeColor=none;fillColor=none;align=left;verticalAlign=top;spacingLeft=4;spacingRight=4;overflow=hidden;rotatable=0;points=[[0,0.5],[1,0.5]];portConstraint=eastwest;" parent="232" vertex="1">
                    <mxGeometry y="78" width="190" height="26" as="geometry"/>
                </mxCell>
                <mxCell id="239" value="-__termYear: TermYear" style="text;strokeColor=none;fillColor=none;align=left;verticalAlign=top;spacingLeft=4;spacingRight=4;overflow=hidden;rotatable=0;points=[[0,0.5],[1,0.5]];portConstraint=eastwest;" parent="232" vertex="1">
                    <mxGeometry y="104" width="190" height="26" as="geometry"/>
                </mxCell>
                <mxCell id="240" value="" style="line;strokeWidth=1;fillColor=none;align=left;verticalAlign=middle;spacingTop=-1;spacingLeft=3;spacingRight=3;rotatable=0;labelPosition=right;points=[];portConstraint=eastwest;strokeColor=inherit;" parent="232" vertex="1">
                    <mxGeometry y="130" width="190" height="8" as="geometry"/>
                </mxCell>
                <mxCell id="241" value="&lt;&lt;constructor&gt;&gt;__init__(self)" style="text;strokeColor=none;fillColor=none;align=left;verticalAlign=top;spacingLeft=4;spacingRight=4;overflow=hidden;rotatable=0;points=[[0,0.5],[1,0.5]];portConstraint=eastwest;fontStyle=0" parent="232" vertex="1">
                    <mxGeometry y="138" width="190" height="26" as="geometry"/>
                </mxCell>
                <mxCell id="252" value="+showSchedule(self, log): void" style="text;strokeColor=none;fillColor=none;align=left;verticalAlign=middle;spacingLeft=4;spacingRight=4;overflow=hidden;points=[[0,0.5],[1,0.5]];portConstraint=eastwest;rotatable=0;" parent="232" vertex="1">
                    <mxGeometry y="164" width="190" height="30" as="geometry"/>
                </mxCell>
                <mxCell id="242" value="Semester" style="swimlane;fontStyle=1;align=center;verticalAlign=top;childLayout=stackLayout;horizontal=1;startSize=26;horizontalStack=0;resizeParent=1;resizeParentMax=0;resizeLast=0;collapsible=1;marginBottom=0;" parent="1" vertex="1">
                    <mxGeometry x="100" y="910" width="350" height="346" as="geometry"/>
                </mxCell>
                <mxCell id="249" value="-__gradeLectureList: list()" style="text;strokeColor=none;fillColor=#666600;align=left;verticalAlign=top;spacingLeft=4;spacingRight=4;overflow=hidden;rotatable=0;points=[[0,0.5],[1,0.5]];portConstraint=eastwest;" parent="242" vertex="1">
                    <mxGeometry y="26" width="350" height="26" as="geometry"/>
                </mxCell>
                <mxCell id="314" value="- yano: double" style="text;strokeColor=none;fillColor=#990000;align=left;verticalAlign=top;spacingLeft=4;spacingRight=4;overflow=hidden;rotatable=0;points=[[0,0.5],[1,0.5]];portConstraint=eastwest;" vertex="1" parent="242">
                    <mxGeometry y="52" width="350" height="26" as="geometry"/>
                </mxCell>
                <mxCell id="313" value="- points: double" style="text;strokeColor=none;fillColor=#990000;align=left;verticalAlign=top;spacingLeft=4;spacingRight=4;overflow=hidden;rotatable=0;points=[[0,0.5],[1,0.5]];portConstraint=eastwest;" vertex="1" parent="242">
                    <mxGeometry y="78" width="350" height="26" as="geometry"/>
                </mxCell>
                <mxCell id="312" value="- creditsCompleted: int" style="text;strokeColor=none;fillColor=#990000;align=left;verticalAlign=top;spacingLeft=4;spacingRight=4;overflow=hidden;rotatable=0;points=[[0,0.5],[1,0.5]];portConstraint=eastwest;" vertex="1" parent="242">
                    <mxGeometry y="104" width="350" height="26" as="geometry"/>
                </mxCell>
                <mxCell id="311" value="- creditsTaken: int" style="text;strokeColor=none;fillColor=#990000;align=left;verticalAlign=top;spacingLeft=4;spacingRight=4;overflow=hidden;rotatable=0;points=[[0,0.5],[1,0.5]];portConstraint=eastwest;" vertex="1" parent="242">
                    <mxGeometry y="130" width="350" height="26" as="geometry"/>
                </mxCell>
                <mxCell id="310" value="- listOfLecturesTaken: Map&lt;Lecture,LetterGrade&gt;" style="text;strokeColor=none;fillColor=#990000;align=left;verticalAlign=top;spacingLeft=4;spacingRight=4;overflow=hidden;rotatable=0;points=[[0,0.5],[1,0.5]];portConstraint=eastwest;" vertex="1" parent="242">
                    <mxGeometry y="156" width="350" height="26" as="geometry"/>
                </mxCell>
                <mxCell id="250" value="" style="line;strokeWidth=1;fillColor=none;align=left;verticalAlign=middle;spacingTop=-1;spacingLeft=3;spacingRight=3;rotatable=0;labelPosition=right;points=[];portConstraint=eastwest;strokeColor=inherit;" parent="242" vertex="1">
                    <mxGeometry y="182" width="350" height="8" as="geometry"/>
                </mxCell>
                <mxCell id="251" value="&lt;&lt;constructor&gt;&gt;__init__(self)" style="text;strokeColor=none;fillColor=none;align=left;verticalAlign=top;spacingLeft=4;spacingRight=4;overflow=hidden;rotatable=0;points=[[0,0.5],[1,0.5]];portConstraint=eastwest;fontStyle=0" parent="242" vertex="1">
                    <mxGeometry y="190" width="350" height="26" as="geometry"/>
                </mxCell>
                <mxCell id="257" value="+ addLecture(self, lecture, grade): void" style="text;strokeColor=none;fillColor=none;align=left;verticalAlign=top;spacingLeft=4;spacingRight=4;overflow=hidden;rotatable=0;points=[[0,0.5],[1,0.5]];portConstraint=eastwest;" parent="242" vertex="1">
                    <mxGeometry y="216" width="350" height="26" as="geometry"/>
                </mxCell>
                <mxCell id="254" value="- __creditsTakenCalculator(self, listOfLecturesTaken): Integer" style="text;strokeColor=none;fillColor=#666600;align=left;verticalAlign=top;spacingLeft=4;spacingRight=4;overflow=hidden;rotatable=0;points=[[0,0.5],[1,0.5]];portConstraint=eastwest;" parent="242" vertex="1">
                    <mxGeometry y="242" width="350" height="26" as="geometry"/>
                </mxCell>
                <mxCell id="255" value="- __creditsCompletedCalculator(self, listOfLecturesTaken): Integer" style="text;strokeColor=none;fillColor=#666600;align=left;verticalAlign=top;spacingLeft=4;spacingRight=4;overflow=hidden;rotatable=0;points=[[0,0.5],[1,0.5]];portConstraint=eastwest;" parent="242" vertex="1">
                    <mxGeometry y="268" width="350" height="26" as="geometry"/>
                </mxCell>
                <mxCell id="256" value="- __pointsCalculator(self,listOfLecturesTaken): Float" style="text;strokeColor=none;fillColor=#666600;align=left;verticalAlign=top;spacingLeft=4;spacingRight=4;overflow=hidden;rotatable=0;points=[[0,0.5],[1,0.5]];portConstraint=eastwest;" parent="242" vertex="1">
                    <mxGeometry y="294" width="350" height="26" as="geometry"/>
                </mxCell>
                <mxCell id="309" value="+ removeLecture(Lecture,LectureGrade): void" style="text;strokeColor=none;fillColor=#990000;align=left;verticalAlign=top;spacingLeft=4;spacingRight=4;overflow=hidden;rotatable=0;points=[[0,0.5],[1,0.5]];portConstraint=eastwest;" vertex="1" parent="242">
                    <mxGeometry y="320" width="350" height="26" as="geometry"/>
                </mxCell>
                <mxCell id="272" value="" style="endArrow=classic;html=1;exitX=0.5;exitY=0;exitDx=0;exitDy=0;entryX=0.492;entryY=1.133;entryDx=0;entryDy=0;entryPerimeter=0;startArrow=none;" parent="1" source="276" target="30" edge="1">
                    <mxGeometry width="50" height="50" relative="1" as="geometry">
                        <mxPoint x="-300" y="190" as="sourcePoint"/>
                        <mxPoint x="-300" y="150" as="targetPoint"/>
                    </mxGeometry>
                </mxCell>
                <mxCell id="273" value="" style="endArrow=classic;html=1;entryX=0.499;entryY=1.098;entryDx=0;entryDy=0;entryPerimeter=0;exitX=0.5;exitY=0;exitDx=0;exitDy=0;startArrow=none;" parent="1" source="275" target="30" edge="1">
                    <mxGeometry width="50" height="50" relative="1" as="geometry">
                        <mxPoint x="-140" y="180" as="sourcePoint"/>
                        <mxPoint x="-318.8299999999999" y="218.11000000000013" as="targetPoint"/>
                    </mxGeometry>
                </mxCell>
                <mxCell id="274" value="" style="endArrow=classic;html=1;exitX=0.5;exitY=0;exitDx=0;exitDy=0;entryX=0.5;entryY=1;entryDx=0;entryDy=0;startArrow=none;" parent="1" source="279" target="39" edge="1">
                    <mxGeometry width="50" height="50" relative="1" as="geometry">
                        <mxPoint x="50" y="380" as="sourcePoint"/>
                        <mxPoint x="100" y="400" as="targetPoint"/>
                    </mxGeometry>
                </mxCell>
                <mxCell id="276" value="Inherit" style="text;html=1;resizable=0;autosize=1;align=center;verticalAlign=middle;points=[];fillColor=none;strokeColor=none;rounded=0;" parent="1" vertex="1">
                    <mxGeometry x="-575" y="1395" width="50" height="20" as="geometry"/>
                </mxCell>
                <mxCell id="277" value="" style="endArrow=none;html=1;exitX=0.5;exitY=0;exitDx=0;exitDy=0;entryX=0.492;entryY=1.133;entryDx=0;entryDy=0;entryPerimeter=0;" parent="1" source="2" target="276" edge="1">
                    <mxGeometry width="50" height="50" relative="1" as="geometry">
                        <mxPoint x="-335" y="200" as="sourcePoint"/>
                        <mxPoint x="-217.32000000000016" y="133.9899999999999" as="targetPoint"/>
                    </mxGeometry>
                </mxCell>
                <mxCell id="275" value="Inherit" style="text;html=1;resizable=0;autosize=1;align=center;verticalAlign=middle;points=[];fillColor=none;strokeColor=none;rounded=0;" parent="1" vertex="1">
                    <mxGeometry x="-380" y="1375" width="50" height="20" as="geometry"/>
                </mxCell>
                <mxCell id="278" value="" style="endArrow=none;html=1;entryX=0.499;entryY=1.098;entryDx=0;entryDy=0;entryPerimeter=0;exitX=0.5;exitY=0;exitDx=0;exitDy=0;" parent="1" source="39" target="275" edge="1">
                    <mxGeometry width="50" height="50" relative="1" as="geometry">
                        <mxPoint x="65" y="170" as="sourcePoint"/>
                        <mxPoint x="-215.28999999999996" y="132.93999999999994" as="targetPoint"/>
                    </mxGeometry>
                </mxCell>
                <mxCell id="279" value="Inherit" style="text;html=1;resizable=0;autosize=1;align=center;verticalAlign=middle;points=[];fillColor=none;strokeColor=none;rounded=0;" parent="1" vertex="1">
                    <mxGeometry x="-263.75" y="1820" width="50" height="20" as="geometry"/>
                </mxCell>
                <mxCell id="280" value="" style="endArrow=none;html=1;exitX=0.5;exitY=0;exitDx=0;exitDy=0;entryX=0.5;entryY=1;entryDx=0;entryDy=0;" parent="1" source="31" target="279" edge="1">
                    <mxGeometry width="50" height="50" relative="1" as="geometry">
                        <mxPoint x="65" y="430" as="sourcePoint"/>
                        <mxPoint x="65" y="379.9999999999998" as="targetPoint"/>
                    </mxGeometry>
                </mxCell>
                <mxCell id="281" value="Implement" style="text;html=1;resizable=0;autosize=1;align=center;verticalAlign=middle;points=[];fillColor=none;strokeColor=none;rounded=0;" parent="1" vertex="1">
                    <mxGeometry x="-550" y="916" width="70" height="20" as="geometry"/>
                </mxCell>
                <mxCell id="282" value="" style="endArrow=none;html=1;rounded=0;entryX=0.5;entryY=0;entryDx=0;entryDy=0;exitX=0.25;exitY=1;exitDx=0;exitDy=0;" parent="1" source="97" target="281" edge="1">
                    <mxGeometry width="50" height="50" relative="1" as="geometry">
                        <mxPoint x="-470" y="877" as="sourcePoint"/>
                        <mxPoint x="-560" y="976" as="targetPoint"/>
                    </mxGeometry>
                </mxCell>
                <mxCell id="283" value="Implement" style="text;html=1;resizable=0;autosize=1;align=center;verticalAlign=middle;points=[];fillColor=none;strokeColor=none;rounded=0;" parent="1" vertex="1">
                    <mxGeometry x="-405" y="920" width="70" height="20" as="geometry"/>
                </mxCell>
                <mxCell id="284" value="" style="endArrow=none;html=1;rounded=0;exitX=0.75;exitY=1;exitDx=0;exitDy=0;" parent="1" source="97" target="283" edge="1">
                    <mxGeometry width="50" height="50" relative="1" as="geometry">
                        <mxPoint x="-410" y="877" as="sourcePoint"/>
                        <mxPoint x="-325" y="976" as="targetPoint"/>
                    </mxGeometry>
                </mxCell>
                <mxCell id="285" value="Implement" style="text;html=1;resizable=0;autosize=1;align=center;verticalAlign=middle;points=[];fillColor=none;strokeColor=none;rounded=0;" parent="1" vertex="1">
                    <mxGeometry x="-360" y="843" width="70" height="20" as="geometry"/>
                </mxCell>
                <mxCell id="286" value="" style="edgeStyle=orthogonalEdgeStyle;rounded=0;orthogonalLoop=1;jettySize=auto;html=1;entryX=-0.021;entryY=0.792;entryDx=0;entryDy=0;entryPerimeter=0;endArrow=none;" parent="1" source="97" target="285" edge="1">
                    <mxGeometry relative="1" as="geometry">
                        <mxPoint x="-263.57000000000016" y="852.5920000000001" as="targetPoint"/>
                        <mxPoint x="-380" y="852" as="sourcePoint"/>
                    </mxGeometry>
                </mxCell>
                <mxCell id="287" value="Implement" style="text;html=1;resizable=0;autosize=1;align=center;verticalAlign=middle;points=[];fillColor=none;strokeColor=none;rounded=0;" parent="1" vertex="1">
                    <mxGeometry x="-595" y="843" width="70" height="20" as="geometry"/>
                </mxCell>
                <mxCell id="288" value="" style="edgeStyle=orthogonalEdgeStyle;rounded=0;orthogonalLoop=1;jettySize=auto;html=1;entryX=1.031;entryY=0.792;entryDx=0;entryDy=0;entryPerimeter=0;endArrow=none;" parent="1" source="97" target="287" edge="1">
                    <mxGeometry relative="1" as="geometry">
                        <mxPoint x="-614.73" y="852.5920000000001" as="targetPoint"/>
                        <Array as="points"/>
                        <mxPoint x="-500" y="852" as="sourcePoint"/>
                    </mxGeometry>
                </mxCell>
            </root>
        </mxGraphModel>
    </diagram>
</mxfile>